G04 #@! TF.GenerationSoftware,KiCad,Pcbnew,(5.0.0)*
G04 #@! TF.CreationDate,2019-02-04T02:42:21+00:00*
G04 #@! TF.ProjectId,Maxime_Spikeling,4D6178696D655F5370696B656C696E67,rev?*
G04 #@! TF.SameCoordinates,Original*
G04 #@! TF.FileFunction,Other,Fab,Top*
%FSLAX46Y46*%
G04 Gerber Fmt 4.6, Leading zero omitted, Abs format (unit mm)*
G04 Created by KiCad (PCBNEW (5.0.0)) date 02/04/19 02:42:21*
%MOMM*%
%LPD*%
G01*
G04 APERTURE LIST*
%ADD10C,0.120000*%
%ADD11C,0.100000*%
%ADD12C,0.150000*%
G04 APERTURE END LIST*
D10*
G04 #@! TO.C,*
X85660000Y-59250000D02*
X87410000Y-59250000D01*
X87410000Y-59250000D02*
X87410000Y-59750000D01*
X87410000Y-59750000D02*
X85660000Y-59750000D01*
X85660000Y-59750000D02*
X85660000Y-59250000D01*
D11*
X116735000Y-49530000D02*
X117735000Y-48530000D01*
X116735000Y-66310000D02*
X116735000Y-49530000D01*
X123085000Y-66310000D02*
X116735000Y-66310000D01*
X123085000Y-48530000D02*
X123085000Y-66310000D01*
X117735000Y-48530000D02*
X123085000Y-48530000D01*
X48940000Y-53500000D02*
X48940000Y-61500000D01*
X59100000Y-61495000D02*
X48940000Y-61495000D01*
X59150000Y-61500000D02*
X59150000Y-53480000D01*
X48940000Y-53495000D02*
X59100000Y-53495000D01*
X49350000Y-68760000D02*
X49350000Y-46160000D01*
X49240000Y-46170000D02*
X98550000Y-46170000D01*
X98550000Y-46170000D02*
X99820000Y-47440000D01*
X99820000Y-47440000D02*
X99820000Y-68760000D01*
X99820000Y-68780000D02*
X49350000Y-68780000D01*
G04 #@! TO.C,Digital In 1*
X37145000Y-32700000D02*
G75*
G03X37145000Y-32700000I-4445000J0D01*
G01*
X26660000Y-26660000D02*
X38740000Y-26660000D01*
X26660000Y-26660000D02*
X26660000Y-38740000D01*
X26660000Y-38740000D02*
X38740000Y-38740000D01*
X38740000Y-26660000D02*
X38740000Y-38740000D01*
G04 #@! TO.C,Digital In 2*
X37245000Y-70400000D02*
G75*
G03X37245000Y-70400000I-4445000J0D01*
G01*
X26760000Y-64360000D02*
X38840000Y-64360000D01*
X26760000Y-64360000D02*
X26760000Y-76440000D01*
X26760000Y-76440000D02*
X38840000Y-76440000D01*
X38840000Y-64360000D02*
X38840000Y-76440000D01*
G04 #@! TO.C,Analog In*
X37145000Y-110400000D02*
G75*
G03X37145000Y-110400000I-4445000J0D01*
G01*
X26660000Y-104360000D02*
X38740000Y-104360000D01*
X26660000Y-104360000D02*
X26660000Y-116440000D01*
X26660000Y-116440000D02*
X38740000Y-116440000D01*
X38740000Y-104360000D02*
X38740000Y-116440000D01*
G04 #@! TO.C,Stimulus*
X157245000Y-110000000D02*
G75*
G03X157245000Y-110000000I-4445000J0D01*
G01*
X146760000Y-103960000D02*
X158840000Y-103960000D01*
X146760000Y-103960000D02*
X146760000Y-116040000D01*
X146760000Y-116040000D02*
X158840000Y-116040000D01*
X158840000Y-103960000D02*
X158840000Y-116040000D01*
G04 #@! TO.C,Digital Out*
X156845000Y-70300000D02*
G75*
G03X156845000Y-70300000I-4445000J0D01*
G01*
X146360000Y-64260000D02*
X158440000Y-64260000D01*
X146360000Y-64260000D02*
X146360000Y-76340000D01*
X146360000Y-76340000D02*
X158440000Y-76340000D01*
X158440000Y-64260000D02*
X158440000Y-76340000D01*
G04 #@! TO.C,Analog Out*
X156845000Y-32600000D02*
G75*
G03X156845000Y-32600000I-4445000J0D01*
G01*
X146360000Y-26560000D02*
X158440000Y-26560000D01*
X146360000Y-26560000D02*
X146360000Y-38640000D01*
X146360000Y-38640000D02*
X158440000Y-38640000D01*
X158440000Y-26560000D02*
X158440000Y-38640000D01*
G04 #@! TO.C,*
X92970000Y-30010000D02*
X92970000Y-40170000D01*
X113410000Y-30010000D02*
X92970000Y-30010000D01*
X113410000Y-40170000D02*
X113410000Y-30010000D01*
X92970000Y-40170000D02*
X113410000Y-40170000D01*
X94030000Y-38265000D02*
X93030000Y-37265000D01*
X113350000Y-38265000D02*
X94030000Y-38265000D01*
X113350000Y-31915000D02*
X113350000Y-38265000D01*
X93030000Y-31915000D02*
X113350000Y-31915000D01*
X93030000Y-37265000D02*
X93030000Y-31915000D01*
X62210000Y-113275000D02*
X61210000Y-112275000D01*
X78990000Y-113275000D02*
X62210000Y-113275000D01*
X78990000Y-106925000D02*
X78990000Y-113275000D01*
X61210000Y-106925000D02*
X78990000Y-106925000D01*
X61210000Y-112275000D02*
X61210000Y-106925000D01*
X92710000Y-113275000D02*
X91710000Y-112275000D01*
X109490000Y-113275000D02*
X92710000Y-113275000D01*
X109490000Y-106925000D02*
X109490000Y-113275000D01*
X91710000Y-106925000D02*
X109490000Y-106925000D01*
X91710000Y-112275000D02*
X91710000Y-106925000D01*
G04 #@! TO.C,Speaker*
X141475000Y-110100000D02*
G75*
G03X141475000Y-110100000I-10875000J0D01*
G01*
X131600000Y-110100000D02*
G75*
G03X131600000Y-110100000I-1000000J0D01*
G01*
G04 #@! TO.C,Mode*
X111810000Y-130900000D02*
X116590000Y-130900000D01*
X116592469Y-130898926D02*
G75*
G03X111810000Y-130900000I-2392469J5498926D01*
G01*
G04 #@! TO.C,Vm*
X95400000Y-124100000D02*
G75*
G03X95400000Y-124100000I-3000000J0D01*
G01*
X87500000Y-130600000D02*
X97300000Y-130600000D01*
X97300000Y-130600000D02*
X97300000Y-118600000D01*
X97300000Y-118600000D02*
X87500000Y-118600000D01*
X87500000Y-118600000D02*
X87500000Y-130600000D01*
G04 #@! TO.C,*
X71900000Y-124100000D02*
G75*
G03X71900000Y-124100000I-3000000J0D01*
G01*
X64000000Y-130600000D02*
X73800000Y-130600000D01*
X73800000Y-130600000D02*
X73800000Y-118600000D01*
X73800000Y-118600000D02*
X64000000Y-118600000D01*
X64000000Y-118600000D02*
X64000000Y-130600000D01*
X78530000Y-83365000D02*
X77530000Y-82365000D01*
X108010000Y-83365000D02*
X78530000Y-83365000D01*
X108010000Y-77015000D02*
X108010000Y-83365000D01*
X77530000Y-77015000D02*
X108010000Y-77015000D01*
X77530000Y-82365000D02*
X77530000Y-77015000D01*
X58230000Y-38165000D02*
X57230000Y-37165000D01*
X80090000Y-38165000D02*
X58230000Y-38165000D01*
X80090000Y-31815000D02*
X80090000Y-38165000D01*
X57230000Y-31815000D02*
X80090000Y-31815000D01*
X57230000Y-37165000D02*
X57230000Y-31815000D01*
G04 #@! TO.C,J8*
X41969445Y-126465476D02*
G75*
G03X41970000Y-124133810I1500555J1165476D01*
G01*
X44970000Y-125300000D02*
G75*
G03X44970000Y-125300000I-1500000J0D01*
G01*
X41970000Y-124133810D02*
X41970000Y-126466190D01*
G04 #@! TO.C,10 k\03A9*
X130680000Y-80900000D02*
X130680000Y-77700000D01*
X130680000Y-77700000D02*
X124740000Y-77700000D01*
X124740000Y-77700000D02*
X124740000Y-80900000D01*
X124740000Y-80900000D02*
X130680000Y-80900000D01*
X133800000Y-79300000D02*
X130680000Y-79300000D01*
X121620000Y-79300000D02*
X124740000Y-79300000D01*
G04 #@! TO.C,*
X133780000Y-83300000D02*
X130660000Y-83300000D01*
X121600000Y-83300000D02*
X124720000Y-83300000D01*
X130660000Y-81700000D02*
X124720000Y-81700000D01*
X130660000Y-84900000D02*
X130660000Y-81700000D01*
X124720000Y-84900000D02*
X130660000Y-84900000D01*
X124720000Y-81700000D02*
X124720000Y-84900000D01*
X155800000Y-123700000D02*
G75*
G03X155800000Y-123700000I-3000000J0D01*
G01*
X147900000Y-130200000D02*
X157700000Y-130200000D01*
X157700000Y-130200000D02*
X157700000Y-118200000D01*
X157700000Y-118200000D02*
X147900000Y-118200000D01*
X147900000Y-118200000D02*
X147900000Y-130200000D01*
G04 #@! TO.C,Synapse 1*
X39600000Y-43400000D02*
X27600000Y-43400000D01*
X39600000Y-53200000D02*
X39600000Y-43400000D01*
X27600000Y-53200000D02*
X39600000Y-53200000D01*
X27600000Y-43400000D02*
X27600000Y-53200000D01*
X37100000Y-48300000D02*
G75*
G03X37100000Y-48300000I-3000000J0D01*
G01*
G04 #@! TO.C,Synapse 2*
X39600000Y-80900000D02*
X27600000Y-80900000D01*
X39600000Y-90700000D02*
X39600000Y-80900000D01*
X27600000Y-90700000D02*
X39600000Y-90700000D01*
X27600000Y-80900000D02*
X27600000Y-90700000D01*
X37100000Y-85800000D02*
G75*
G03X37100000Y-85800000I-3000000J0D01*
G01*
G04 #@! TO.C,1 uF*
X134350000Y-45000000D02*
G75*
G03X134350000Y-45000000I-2500000J0D01*
G01*
X129716395Y-43912500D02*
X130216395Y-43912500D01*
X129966395Y-43662500D02*
X129966395Y-44162500D01*
X88733605Y-36437500D02*
X88733605Y-35937500D01*
X88983605Y-36187500D02*
X88483605Y-36187500D01*
X89350000Y-35100000D02*
G75*
G03X89350000Y-35100000I-2500000J0D01*
G01*
G04 #@! TO.C,LED*
X128969445Y-126665476D02*
G75*
G03X128970000Y-124333810I1500555J1165476D01*
G01*
X131970000Y-125500000D02*
G75*
G03X131970000Y-125500000I-1500000J0D01*
G01*
X128970000Y-124333810D02*
X128970000Y-126666190D01*
G04 #@! TO.C,*
X133780000Y-75300000D02*
X130660000Y-75300000D01*
X121600000Y-75300000D02*
X124720000Y-75300000D01*
X130660000Y-73700000D02*
X124720000Y-73700000D01*
X130660000Y-76900000D02*
X130660000Y-73700000D01*
X124720000Y-76900000D02*
X130660000Y-76900000D01*
X124720000Y-73700000D02*
X124720000Y-76900000D01*
G04 #@! TO.C,1 nF*
X132550000Y-63900000D02*
G75*
G03X132550000Y-63900000I-2500000J0D01*
G01*
X132183605Y-64987500D02*
X131683605Y-64987500D01*
X131933605Y-65237500D02*
X131933605Y-64737500D01*
G04 #@! TO.C,10 \03A9*
X121620000Y-71300000D02*
X124740000Y-71300000D01*
X133800000Y-71300000D02*
X130680000Y-71300000D01*
X124740000Y-72900000D02*
X130680000Y-72900000D01*
X124740000Y-69700000D02*
X124740000Y-72900000D01*
X130680000Y-69700000D02*
X124740000Y-69700000D01*
X130680000Y-72900000D02*
X130680000Y-69700000D01*
G04 #@! TO.C,5V*
X127700000Y-39200000D02*
X127700000Y-25500000D01*
X118700000Y-40000000D02*
X126950000Y-40000000D01*
X118700000Y-25500000D02*
X118700000Y-40000000D01*
X127700000Y-25500000D02*
X118700000Y-25500000D01*
X127700000Y-29000000D02*
X118700000Y-29000000D01*
X127705425Y-39196787D02*
X126950000Y-40000000D01*
D10*
G04 #@! TO.C,*
X88200000Y-59750000D02*
X88200000Y-59250000D01*
X89950000Y-59750000D02*
X88200000Y-59750000D01*
X89950000Y-59250000D02*
X89950000Y-59750000D01*
X88200000Y-59250000D02*
X89950000Y-59250000D01*
G04 #@! TD*
G04 #@! TO.C,*
D12*
G04 #@! TO.C,Digital In 1*
G04 #@! TO.C,Digital In 2*
G04 #@! TO.C,Analog In*
G04 #@! TO.C,Stimulus*
G04 #@! TO.C,Digital Out*
G04 #@! TO.C,Analog Out*
G04 #@! TO.C,*
G04 #@! TO.C,Speaker*
X135299047Y-108371428D02*
X136060952Y-108371428D01*
X135680000Y-108752380D02*
X135680000Y-107990476D01*
G04 #@! TO.C,Mode*
G04 #@! TO.C,Vm*
G04 #@! TO.C,*
G04 #@! TO.C,Synapse 1*
G04 #@! TO.C,Synapse 2*
G04 #@! TO.C,1 uF*
X132302380Y-45976190D02*
X132302380Y-46547619D01*
X132302380Y-46261904D02*
X131302380Y-46261904D01*
X131445238Y-46357142D01*
X131540476Y-46452380D01*
X131588095Y-46547619D01*
X131635714Y-44357142D02*
X132302380Y-44357142D01*
X131635714Y-44785714D02*
X132159523Y-44785714D01*
X132254761Y-44738095D01*
X132302380Y-44642857D01*
X132302380Y-44500000D01*
X132254761Y-44404761D01*
X132207142Y-44357142D01*
X131778571Y-43547619D02*
X131778571Y-43880952D01*
X132302380Y-43880952D02*
X131302380Y-43880952D01*
X131302380Y-43404761D01*
X85873809Y-35552380D02*
X85302380Y-35552380D01*
X85588095Y-35552380D02*
X85588095Y-34552380D01*
X85492857Y-34695238D01*
X85397619Y-34790476D01*
X85302380Y-34838095D01*
X87492857Y-34885714D02*
X87492857Y-35552380D01*
X87064285Y-34885714D02*
X87064285Y-35409523D01*
X87111904Y-35504761D01*
X87207142Y-35552380D01*
X87350000Y-35552380D01*
X87445238Y-35504761D01*
X87492857Y-35457142D01*
X88302380Y-35028571D02*
X87969047Y-35028571D01*
X87969047Y-35552380D02*
X87969047Y-34552380D01*
X88445238Y-34552380D01*
G04 #@! TO.C,LED*
G04 #@! TO.C,1 nF*
X129073809Y-64352380D02*
X128502380Y-64352380D01*
X128788095Y-64352380D02*
X128788095Y-63352380D01*
X128692857Y-63495238D01*
X128597619Y-63590476D01*
X128502380Y-63638095D01*
X130264285Y-63685714D02*
X130264285Y-64352380D01*
X130264285Y-63780952D02*
X130311904Y-63733333D01*
X130407142Y-63685714D01*
X130550000Y-63685714D01*
X130645238Y-63733333D01*
X130692857Y-63828571D01*
X130692857Y-64352380D01*
X131502380Y-63828571D02*
X131169047Y-63828571D01*
X131169047Y-64352380D02*
X131169047Y-63352380D01*
X131645238Y-63352380D01*
G04 #@! TO.C,5V*
G04 #@! TO.C,*
G04 #@! TD*
M02*
