G04 #@! TF.GenerationSoftware,KiCad,Pcbnew,(5.0.0)*
G04 #@! TF.CreationDate,2019-02-04T02:42:20+00:00*
G04 #@! TF.ProjectId,Maxime_Spikeling,4D6178696D655F5370696B656C696E67,rev?*
G04 #@! TF.SameCoordinates,Original*
G04 #@! TF.FileFunction,Soldermask,Top*
G04 #@! TF.FilePolarity,Negative*
%FSLAX46Y46*%
G04 Gerber Fmt 4.6, Leading zero omitted, Abs format (unit mm)*
G04 Created by KiCad (PCBNEW (5.0.0)) date 02/04/19 02:42:20*
%MOMM*%
%LPD*%
G01*
G04 APERTURE LIST*
%ADD10C,1.800000*%
%ADD11O,2.800000X2.000000*%
%ADD12R,2.800000X2.000000*%
%ADD13R,2.000000X2.000000*%
%ADD14O,2.000000X2.000000*%
%ADD15C,2.900000*%
%ADD16O,2.000000X2.800000*%
%ADD17R,2.000000X2.800000*%
%ADD18C,3.600000*%
%ADD19R,2.400000X2.400000*%
%ADD20C,2.400000*%
%ADD21C,2.200000*%
%ADD22C,4.400000*%
%ADD23R,2.200000X2.200000*%
%ADD24C,2.000000*%
%ADD25C,0.100000*%
%ADD26C,3.900000*%
%ADD27C,3.400000*%
%ADD28R,3.900000X3.900000*%
G04 APERTURE END LIST*
D10*
G04 #@! TO.C,*
X86560000Y-59500000D03*
G04 #@! TD*
D11*
G04 #@! TO.C,*
X123720000Y-49800000D03*
X116100000Y-65040000D03*
X123720000Y-52340000D03*
X116100000Y-62500000D03*
X123720000Y-54880000D03*
X116100000Y-59960000D03*
X123720000Y-57420000D03*
X116100000Y-57420000D03*
X123720000Y-59960000D03*
X116100000Y-54880000D03*
X123720000Y-62500000D03*
X116100000Y-52340000D03*
X123720000Y-65040000D03*
D12*
X116100000Y-49800000D03*
G04 #@! TD*
D13*
G04 #@! TO.C,*
X94100000Y-67770000D03*
D14*
X89020000Y-47440000D03*
X81500000Y-47440000D03*
X91560000Y-47440000D03*
X78960000Y-47440000D03*
X66260000Y-67770000D03*
X76420000Y-47440000D03*
X68800000Y-67770000D03*
X73880000Y-47440000D03*
X71340000Y-67770000D03*
X71340000Y-47440000D03*
X73880000Y-67770000D03*
X68800000Y-47440000D03*
X76420000Y-67770000D03*
X66260000Y-47440000D03*
X78960000Y-67770000D03*
X63720000Y-47440000D03*
X81500000Y-67770000D03*
X61180000Y-47440000D03*
X84040000Y-67770000D03*
X58640000Y-47440000D03*
X86580000Y-67770000D03*
X56100000Y-47440000D03*
X89120000Y-67770000D03*
X91660000Y-67770000D03*
X83940000Y-47440000D03*
X86480000Y-47440000D03*
X94100000Y-47440000D03*
G04 #@! TD*
D15*
G04 #@! TO.C,Digital In 1*
X32700000Y-32700000D03*
X37780000Y-37780000D03*
X37780000Y-27620000D03*
X27620000Y-27620000D03*
X27620000Y-37780000D03*
G04 #@! TD*
G04 #@! TO.C,Digital In 2*
X32800000Y-70400000D03*
X37880000Y-75480000D03*
X37880000Y-65320000D03*
X27720000Y-65320000D03*
X27720000Y-75480000D03*
G04 #@! TD*
G04 #@! TO.C,Analog In*
X32700000Y-110400000D03*
X37780000Y-115480000D03*
X37780000Y-105320000D03*
X27620000Y-105320000D03*
X27620000Y-115480000D03*
G04 #@! TD*
G04 #@! TO.C,Stimulus*
X152800000Y-110000000D03*
X157880000Y-115080000D03*
X157880000Y-104920000D03*
X147720000Y-104920000D03*
X147720000Y-115080000D03*
G04 #@! TD*
G04 #@! TO.C,Digital Out*
X152400000Y-70300000D03*
X157480000Y-75380000D03*
X157480000Y-65220000D03*
X147320000Y-65220000D03*
X147320000Y-75380000D03*
G04 #@! TD*
G04 #@! TO.C,Analog Out*
X152400000Y-32600000D03*
X157480000Y-37680000D03*
X157480000Y-27520000D03*
X147320000Y-27520000D03*
X147320000Y-37680000D03*
G04 #@! TD*
D16*
G04 #@! TO.C,*
X94300000Y-31280000D03*
X112080000Y-38900000D03*
X96840000Y-31280000D03*
X109540000Y-38900000D03*
X99380000Y-31280000D03*
X107000000Y-38900000D03*
X101920000Y-31280000D03*
X104460000Y-38900000D03*
X104460000Y-31280000D03*
X101920000Y-38900000D03*
X107000000Y-31280000D03*
X99380000Y-38900000D03*
X109540000Y-31280000D03*
X96840000Y-38900000D03*
X112080000Y-31280000D03*
D17*
X94300000Y-38900000D03*
G04 #@! TD*
D18*
G04 #@! TO.C,*
X52300000Y-27100000D03*
G04 #@! TD*
D16*
G04 #@! TO.C,*
X62480000Y-106290000D03*
X77720000Y-113910000D03*
X65020000Y-106290000D03*
X75180000Y-113910000D03*
X67560000Y-106290000D03*
X72640000Y-113910000D03*
X70100000Y-106290000D03*
X70100000Y-113910000D03*
X72640000Y-106290000D03*
X67560000Y-113910000D03*
X75180000Y-106290000D03*
X65020000Y-113910000D03*
X77720000Y-106290000D03*
D17*
X62480000Y-113910000D03*
G04 #@! TD*
D16*
G04 #@! TO.C,*
X92980000Y-106290000D03*
X108220000Y-113910000D03*
X95520000Y-106290000D03*
X105680000Y-113910000D03*
X98060000Y-106290000D03*
X103140000Y-113910000D03*
X100600000Y-106290000D03*
X100600000Y-113910000D03*
X103140000Y-106290000D03*
X98060000Y-113910000D03*
X105680000Y-106290000D03*
X95520000Y-113910000D03*
X108220000Y-106290000D03*
D17*
X92980000Y-113910000D03*
G04 #@! TD*
D19*
G04 #@! TO.C,Speaker*
X135600000Y-110100000D03*
D20*
X125600000Y-110100000D03*
G04 #@! TD*
G04 #@! TO.C,Mode*
X111700000Y-122900000D03*
X116700000Y-122900000D03*
X116700000Y-127900000D03*
X111700000Y-127900000D03*
G04 #@! TD*
D21*
G04 #@! TO.C,Vm*
X89900000Y-131600000D03*
X92400000Y-131600000D03*
X94900000Y-131600000D03*
D22*
X88000000Y-124600000D03*
X96800000Y-124600000D03*
G04 #@! TD*
D21*
G04 #@! TO.C,*
X66400000Y-131600000D03*
X68900000Y-131600000D03*
X71400000Y-131600000D03*
D22*
X64500000Y-124600000D03*
X73300000Y-124600000D03*
G04 #@! TD*
D18*
G04 #@! TO.C,*
X132600000Y-88100000D03*
G04 #@! TD*
G04 #@! TO.C,*
X52200000Y-88100000D03*
G04 #@! TD*
G04 #@! TO.C,*
X132500000Y-27200000D03*
G04 #@! TD*
D16*
G04 #@! TO.C,*
X78800000Y-76380000D03*
X106740000Y-84000000D03*
X81340000Y-76380000D03*
X104200000Y-84000000D03*
X83880000Y-76380000D03*
X101660000Y-84000000D03*
X86420000Y-76380000D03*
X99120000Y-84000000D03*
X88960000Y-76380000D03*
X96580000Y-84000000D03*
X91500000Y-76380000D03*
X94040000Y-84000000D03*
X94040000Y-76380000D03*
X91500000Y-84000000D03*
X96580000Y-76380000D03*
X88960000Y-84000000D03*
X99120000Y-76380000D03*
X86420000Y-84000000D03*
X101660000Y-76380000D03*
X83880000Y-84000000D03*
X104200000Y-76380000D03*
X81340000Y-84000000D03*
X106740000Y-76380000D03*
D17*
X78800000Y-84000000D03*
G04 #@! TD*
D16*
G04 #@! TO.C,*
X58500000Y-31180000D03*
X78820000Y-38800000D03*
X61040000Y-31180000D03*
X76280000Y-38800000D03*
X63580000Y-31180000D03*
X73740000Y-38800000D03*
X66120000Y-31180000D03*
X71200000Y-38800000D03*
X68660000Y-31180000D03*
X68660000Y-38800000D03*
X71200000Y-31180000D03*
X66120000Y-38800000D03*
X73740000Y-31180000D03*
X63580000Y-38800000D03*
X76280000Y-31180000D03*
X61040000Y-38800000D03*
X78820000Y-31180000D03*
D17*
X58500000Y-38800000D03*
G04 #@! TD*
D23*
G04 #@! TO.C,J8*
X42200000Y-125300000D03*
D21*
X44740000Y-125300000D03*
G04 #@! TD*
D24*
G04 #@! TO.C,10 k\03A9*
X133800000Y-79300000D03*
D14*
X121620000Y-79300000D03*
G04 #@! TD*
G04 #@! TO.C,*
X133780000Y-83300000D03*
D24*
X121600000Y-83300000D03*
G04 #@! TD*
D21*
G04 #@! TO.C,*
X150300000Y-131200000D03*
X152800000Y-131200000D03*
X155300000Y-131200000D03*
D22*
X148400000Y-124200000D03*
X157200000Y-124200000D03*
G04 #@! TD*
G04 #@! TO.C,Synapse 1*
X33600000Y-52700000D03*
X33600000Y-43900000D03*
D21*
X26600000Y-50800000D03*
X26600000Y-48300000D03*
X26600000Y-45800000D03*
G04 #@! TD*
D22*
G04 #@! TO.C,Synapse 2*
X33600000Y-90200000D03*
X33600000Y-81400000D03*
D21*
X26600000Y-88300000D03*
X26600000Y-85800000D03*
X26600000Y-83300000D03*
G04 #@! TD*
D13*
G04 #@! TO.C,1 uF*
X130600000Y-45000000D03*
D24*
X133100000Y-45000000D03*
G04 #@! TD*
G04 #@! TO.C,1 uF*
X85600000Y-35100000D03*
D13*
X88100000Y-35100000D03*
G04 #@! TD*
D23*
G04 #@! TO.C,LED*
X129200000Y-125500000D03*
D21*
X131740000Y-125500000D03*
G04 #@! TD*
D14*
G04 #@! TO.C,*
X133780000Y-75300000D03*
D24*
X121600000Y-75300000D03*
G04 #@! TD*
D13*
G04 #@! TO.C,1 nF*
X131300000Y-63900000D03*
D24*
X128800000Y-63900000D03*
G04 #@! TD*
D14*
G04 #@! TO.C,10 \03A9*
X121620000Y-71300000D03*
D24*
X133800000Y-71300000D03*
G04 #@! TD*
D25*
G04 #@! TO.C,5V*
G36*
X119570567Y-34254695D02*
X119665213Y-34268734D01*
X119758028Y-34291983D01*
X119848116Y-34324217D01*
X119934612Y-34365127D01*
X120016681Y-34414317D01*
X120093533Y-34471315D01*
X120164429Y-34535571D01*
X120228685Y-34606467D01*
X120285683Y-34683319D01*
X120334873Y-34765388D01*
X120375783Y-34851884D01*
X120408017Y-34941972D01*
X120431266Y-35034787D01*
X120445305Y-35129433D01*
X120450000Y-35225000D01*
X120450000Y-37175000D01*
X120445305Y-37270567D01*
X120431266Y-37365213D01*
X120408017Y-37458028D01*
X120375783Y-37548116D01*
X120334873Y-37634612D01*
X120285683Y-37716681D01*
X120228685Y-37793533D01*
X120164429Y-37864429D01*
X120093533Y-37928685D01*
X120016681Y-37985683D01*
X119934612Y-38034873D01*
X119848116Y-38075783D01*
X119758028Y-38108017D01*
X119665213Y-38131266D01*
X119570567Y-38145305D01*
X119475000Y-38150000D01*
X117525000Y-38150000D01*
X117429433Y-38145305D01*
X117334787Y-38131266D01*
X117241972Y-38108017D01*
X117151884Y-38075783D01*
X117065388Y-38034873D01*
X116983319Y-37985683D01*
X116906467Y-37928685D01*
X116835571Y-37864429D01*
X116771315Y-37793533D01*
X116714317Y-37716681D01*
X116665127Y-37634612D01*
X116624217Y-37548116D01*
X116591983Y-37458028D01*
X116568734Y-37365213D01*
X116554695Y-37270567D01*
X116550000Y-37175000D01*
X116550000Y-35225000D01*
X116554695Y-35129433D01*
X116568734Y-35034787D01*
X116591983Y-34941972D01*
X116624217Y-34851884D01*
X116665127Y-34765388D01*
X116714317Y-34683319D01*
X116771315Y-34606467D01*
X116835571Y-34535571D01*
X116906467Y-34471315D01*
X116983319Y-34414317D01*
X117065388Y-34365127D01*
X117151884Y-34324217D01*
X117241972Y-34291983D01*
X117334787Y-34268734D01*
X117429433Y-34254695D01*
X117525000Y-34250000D01*
X119475000Y-34250000D01*
X119570567Y-34254695D01*
X119570567Y-34254695D01*
G37*
D26*
X118500000Y-36200000D03*
D25*
G36*
X124383315Y-31504093D02*
X124465827Y-31516333D01*
X124546742Y-31536601D01*
X124625281Y-31564702D01*
X124700687Y-31600367D01*
X124772235Y-31643251D01*
X124839234Y-31692941D01*
X124901041Y-31748959D01*
X124957059Y-31810766D01*
X125006749Y-31877765D01*
X125049633Y-31949313D01*
X125085298Y-32024719D01*
X125113399Y-32103258D01*
X125133667Y-32184173D01*
X125145907Y-32266685D01*
X125150000Y-32350000D01*
X125150000Y-34050000D01*
X125145907Y-34133315D01*
X125133667Y-34215827D01*
X125113399Y-34296742D01*
X125085298Y-34375281D01*
X125049633Y-34450687D01*
X125006749Y-34522235D01*
X124957059Y-34589234D01*
X124901041Y-34651041D01*
X124839234Y-34707059D01*
X124772235Y-34756749D01*
X124700687Y-34799633D01*
X124625281Y-34835298D01*
X124546742Y-34863399D01*
X124465827Y-34883667D01*
X124383315Y-34895907D01*
X124300000Y-34900000D01*
X122100000Y-34900000D01*
X122016685Y-34895907D01*
X121934173Y-34883667D01*
X121853258Y-34863399D01*
X121774719Y-34835298D01*
X121699313Y-34799633D01*
X121627765Y-34756749D01*
X121560766Y-34707059D01*
X121498959Y-34651041D01*
X121442941Y-34589234D01*
X121393251Y-34522235D01*
X121350367Y-34450687D01*
X121314702Y-34375281D01*
X121286601Y-34296742D01*
X121266333Y-34215827D01*
X121254093Y-34133315D01*
X121250000Y-34050000D01*
X121250000Y-32350000D01*
X121254093Y-32266685D01*
X121266333Y-32184173D01*
X121286601Y-32103258D01*
X121314702Y-32024719D01*
X121350367Y-31949313D01*
X121393251Y-31877765D01*
X121442941Y-31810766D01*
X121498959Y-31748959D01*
X121560766Y-31692941D01*
X121627765Y-31643251D01*
X121699313Y-31600367D01*
X121774719Y-31564702D01*
X121853258Y-31536601D01*
X121934173Y-31516333D01*
X122016685Y-31504093D01*
X122100000Y-31500000D01*
X124300000Y-31500000D01*
X124383315Y-31504093D01*
X124383315Y-31504093D01*
G37*
D27*
X123200000Y-33200000D03*
D28*
X123200000Y-39200000D03*
G04 #@! TD*
D10*
G04 #@! TO.C,*
X89100000Y-59500000D03*
G04 #@! TD*
M02*
