M48
;DRILL file {KiCad (5.0.0)} date 02/04/19 02:42:27
;FORMAT={-:-/ absolute / metric / decimal}
FMAT,2
METRIC,TZ
T1C0.400
T2C0.700
T3C0.800
T4C0.900
T5C1.000
T6C1.100
T7C1.700
%
G90
G05
M71
T1
X47.4Y-117.7
X49.3Y-57.5
X49.5Y-85.8
X50.8Y-96.2
X51.2Y-40.2
X51.4Y-128.1
X53.7Y-43.8
X53.7Y-45.
X54.4Y-37.
X57.5Y-43.8
X58.6Y-45.
X60.05Y-114.8
X62.05Y-96.6
X63.7Y-130.
X64.55Y-90.8
X72.65Y-117.1
X74.63Y-103.9
X74.9Y-28.7
X75.05Y-92.35
X78.Y-28.01
X81.34Y-34.1
X83.7Y-30.8
X84.2Y-28.5
X87.1Y-130.
X89.2Y-90.82
X94.1Y-100.6
X96.Y-88.7
X96.2Y-102.
X98.Y-68.5
X98.8Y-116.75
X101.7Y-97.
X112.6Y-44.1
X112.75Y-80.65
X113.7Y-68.5
X114.Y-78.7
X115.3Y-41.
X118.7Y-48.5
X121.6Y-43.9
X136.6Y-70.3
X139.2Y-88.6
X139.2Y-96.7
X146.4Y-41.8
T2
X89.1Y-59.5
X86.56Y-59.5
T3
X121.62Y-79.3
X133.8Y-79.3
X92.98Y-106.29
X92.98Y-113.91
X95.52Y-106.29
X95.52Y-113.91
X98.06Y-106.29
X98.06Y-113.91
X100.6Y-106.29
X100.6Y-113.91
X103.14Y-106.29
X103.14Y-113.91
X105.68Y-106.29
X105.68Y-113.91
X108.22Y-106.29
X108.22Y-113.91
X128.8Y-63.9
X131.3Y-63.9
X78.8Y-76.38
X78.8Y-84.
X81.34Y-76.38
X81.34Y-84.
X83.88Y-76.38
X83.88Y-84.
X86.42Y-76.38
X86.42Y-84.
X88.96Y-76.38
X88.96Y-84.
X91.5Y-76.38
X91.5Y-84.
X94.04Y-76.38
X94.04Y-84.
X96.58Y-76.38
X96.58Y-84.
X99.12Y-76.38
X99.12Y-84.
X101.66Y-76.38
X101.66Y-84.
X104.2Y-76.38
X104.2Y-84.
X106.74Y-76.38
X106.74Y-84.
X56.1Y-47.44
X58.64Y-47.44
X61.18Y-47.44
X63.72Y-47.44
X66.26Y-47.44
X66.26Y-67.77
X68.8Y-47.44
X68.8Y-67.77
X71.34Y-47.44
X71.34Y-67.77
X73.88Y-47.44
X73.88Y-67.77
X76.42Y-47.44
X76.42Y-67.77
X78.96Y-47.44
X78.96Y-67.77
X81.5Y-47.44
X81.5Y-67.77
X83.94Y-47.44
X84.04Y-67.77
X86.48Y-47.44
X86.58Y-67.77
X89.02Y-47.44
X89.12Y-67.77
X91.56Y-47.44
X91.66Y-67.77
X94.1Y-47.44
X94.1Y-67.77
X116.1Y-49.8
X116.1Y-52.34
X116.1Y-54.88
X116.1Y-57.42
X116.1Y-59.96
X116.1Y-62.5
X116.1Y-65.04
X123.72Y-49.8
X123.72Y-52.34
X123.72Y-54.88
X123.72Y-57.42
X123.72Y-59.96
X123.72Y-62.5
X123.72Y-65.04
X85.6Y-35.1
X88.1Y-35.1
X58.5Y-31.18
X58.5Y-38.8
X61.04Y-31.18
X61.04Y-38.8
X63.58Y-31.18
X63.58Y-38.8
X66.12Y-31.18
X66.12Y-38.8
X68.66Y-31.18
X68.66Y-38.8
X71.2Y-31.18
X71.2Y-38.8
X73.74Y-31.18
X73.74Y-38.8
X76.28Y-31.18
X76.28Y-38.8
X78.82Y-31.18
X78.82Y-38.8
X62.48Y-106.29
X62.48Y-113.91
X65.02Y-106.29
X65.02Y-113.91
X67.56Y-106.29
X67.56Y-113.91
X70.1Y-106.29
X70.1Y-113.91
X72.64Y-106.29
X72.64Y-113.91
X75.18Y-106.29
X75.18Y-113.91
X77.72Y-106.29
X77.72Y-113.91
X94.3Y-31.28
X94.3Y-38.9
X96.84Y-31.28
X96.84Y-38.9
X99.38Y-31.28
X99.38Y-38.9
X101.92Y-31.28
X101.92Y-38.9
X104.46Y-31.28
X104.46Y-38.9
X107.Y-31.28
X107.Y-38.9
X109.54Y-31.28
X109.54Y-38.9
X112.08Y-31.28
X112.08Y-38.9
X121.6Y-75.3
X133.78Y-75.3
X121.62Y-71.3
X133.8Y-71.3
X121.6Y-83.3
X133.78Y-83.3
X130.6Y-45.
X133.1Y-45.
T4
X129.2Y-125.5
X131.74Y-125.5
X42.2Y-125.3
X44.74Y-125.3
T5
X125.6Y-110.1
X135.6Y-110.1
X150.3Y-131.2
X152.8Y-131.2
X155.3Y-131.2
X26.6Y-83.3
X26.6Y-85.8
X26.6Y-88.3
X89.9Y-131.6
X92.4Y-131.6
X94.9Y-131.6
X66.4Y-131.6
X68.9Y-131.6
X71.4Y-131.6
X26.6Y-45.8
X26.6Y-48.3
X26.6Y-50.8
T6
X111.7Y-122.9
X111.7Y-127.9
X116.7Y-122.9
X116.7Y-127.9
T7
X27.62Y-27.62
X27.62Y-37.78
X32.7Y-32.7
X37.78Y-27.62
X37.78Y-37.78
X27.72Y-65.32
X27.72Y-75.48
X32.8Y-70.4
X37.88Y-65.32
X37.88Y-75.48
X147.72Y-104.92
X147.72Y-115.08
X152.8Y-110.
X157.88Y-104.92
X157.88Y-115.08
X27.62Y-105.32
X27.62Y-115.48
X32.7Y-110.4
X37.78Y-105.32
X37.78Y-115.48
X147.32Y-65.22
X147.32Y-75.38
X152.4Y-70.3
X157.48Y-65.22
X157.48Y-75.38
X147.32Y-27.52
X147.32Y-37.68
X152.4Y-32.6
X157.48Y-27.52
X157.48Y-37.68
T5
X118.5Y-35.2G85X118.5Y-37.2
G05
X124.2Y-33.2G85X122.2Y-33.2
G05
X124.2Y-39.2G85X122.2Y-39.2
G05
T0
M30
