G04 #@! TF.GenerationSoftware,KiCad,Pcbnew,(5.0.0)*
G04 #@! TF.CreationDate,2019-02-04T02:42:21+00:00*
G04 #@! TF.ProjectId,Maxime_Spikeling,4D6178696D655F5370696B656C696E67,rev?*
G04 #@! TF.SameCoordinates,Original*
G04 #@! TF.FileFunction,Other,User*
%FSLAX46Y46*%
G04 Gerber Fmt 4.6, Leading zero omitted, Abs format (unit mm)*
G04 Created by KiCad (PCBNEW (5.0.0)) date 02/04/19 02:42:21*
%MOMM*%
%LPD*%
G01*
G04 APERTURE LIST*
%ADD10C,0.050000*%
G04 APERTURE END LIST*
D10*
G04 #@! TO.C,*
X85160000Y-58300000D02*
X87910000Y-58300000D01*
X85160000Y-58300000D02*
X85160000Y-60700000D01*
X87910000Y-60700000D02*
X87910000Y-58300000D01*
X87910000Y-60700000D02*
X85160000Y-60700000D01*
X125200000Y-48250000D02*
X114650000Y-48250000D01*
X125200000Y-66600000D02*
X125200000Y-48250000D01*
X114650000Y-66600000D02*
X125200000Y-66600000D01*
X114650000Y-48250000D02*
X114650000Y-66600000D01*
X100070000Y-45910000D02*
X100070000Y-69060000D01*
X100070000Y-45910000D02*
X48980000Y-45910000D01*
X48980000Y-69060000D02*
X100070000Y-69060000D01*
X48980000Y-69050000D02*
X48980000Y-45910000D01*
G04 #@! TO.C,Digital In 1*
X39410000Y-39410000D02*
X25990000Y-39410000D01*
X39410000Y-39410000D02*
X39410000Y-25990000D01*
X25990000Y-25990000D02*
X25990000Y-39410000D01*
X25990000Y-25990000D02*
X39410000Y-25990000D01*
G04 #@! TO.C,Digital In 2*
X39510000Y-77110000D02*
X26090000Y-77110000D01*
X39510000Y-77110000D02*
X39510000Y-63690000D01*
X26090000Y-63690000D02*
X26090000Y-77110000D01*
X26090000Y-63690000D02*
X39510000Y-63690000D01*
G04 #@! TO.C,Analog In*
X39410000Y-117110000D02*
X25990000Y-117110000D01*
X39410000Y-117110000D02*
X39410000Y-103690000D01*
X25990000Y-103690000D02*
X25990000Y-117110000D01*
X25990000Y-103690000D02*
X39410000Y-103690000D01*
G04 #@! TO.C,Stimulus*
X159510000Y-116710000D02*
X146090000Y-116710000D01*
X159510000Y-116710000D02*
X159510000Y-103290000D01*
X146090000Y-103290000D02*
X146090000Y-116710000D01*
X146090000Y-103290000D02*
X159510000Y-103290000D01*
G04 #@! TO.C,Digital Out*
X159110000Y-77010000D02*
X145690000Y-77010000D01*
X159110000Y-77010000D02*
X159110000Y-63590000D01*
X145690000Y-63590000D02*
X145690000Y-77010000D01*
X145690000Y-63590000D02*
X159110000Y-63590000D01*
G04 #@! TO.C,Analog Out*
X159110000Y-39310000D02*
X145690000Y-39310000D01*
X159110000Y-39310000D02*
X159110000Y-25890000D01*
X145690000Y-25890000D02*
X145690000Y-39310000D01*
X145690000Y-25890000D02*
X159110000Y-25890000D01*
G04 #@! TO.C,*
X92700000Y-29750000D02*
X92700000Y-40450000D01*
X113700000Y-29750000D02*
X92700000Y-29750000D01*
X113700000Y-40450000D02*
X113700000Y-29750000D01*
X92700000Y-40450000D02*
X113700000Y-40450000D01*
X55750000Y-27100000D02*
G75*
G03X55750000Y-27100000I-3450000J0D01*
G01*
G04 #@! TO.C,Speaker*
X141725000Y-110100000D02*
G75*
G03X141725000Y-110100000I-11125000J0D01*
G01*
G04 #@! TO.C,Mode*
X111740000Y-131290000D02*
X116760000Y-131290000D01*
X116759999Y-131290000D02*
G75*
G03X111740000Y-131290000I-2509999J5890000D01*
G01*
G04 #@! TO.C,Vm*
X85750000Y-132750000D02*
X99050000Y-132750000D01*
X99050000Y-132750000D02*
X99050000Y-118350000D01*
X99050000Y-118350000D02*
X85750000Y-118350000D01*
X85750000Y-118350000D02*
X85750000Y-132750000D01*
G04 #@! TO.C,*
X62250000Y-132750000D02*
X75550000Y-132750000D01*
X75550000Y-132750000D02*
X75550000Y-118350000D01*
X75550000Y-118350000D02*
X62250000Y-118350000D01*
X62250000Y-118350000D02*
X62250000Y-132750000D01*
X136050000Y-88100000D02*
G75*
G03X136050000Y-88100000I-3450000J0D01*
G01*
X55650000Y-88100000D02*
G75*
G03X55650000Y-88100000I-3450000J0D01*
G01*
X135950000Y-27200000D02*
G75*
G03X135950000Y-27200000I-3450000J0D01*
G01*
X77250000Y-74900000D02*
X77250000Y-85450000D01*
X108300000Y-74900000D02*
X77250000Y-74900000D01*
X108300000Y-85450000D02*
X108300000Y-74900000D01*
X77250000Y-85450000D02*
X108300000Y-85450000D01*
X56950000Y-29700000D02*
X56950000Y-40250000D01*
X80350000Y-29700000D02*
X56950000Y-29700000D01*
X80350000Y-40250000D02*
X80350000Y-29700000D01*
X56950000Y-40250000D02*
X80350000Y-40250000D01*
G04 #@! TO.C,J8*
X41050000Y-123050000D02*
X41050000Y-127550000D01*
X41050000Y-127550000D02*
X45900000Y-127550000D01*
X45900000Y-127550000D02*
X45900000Y-123050000D01*
X45900000Y-123050000D02*
X41050000Y-123050000D01*
G04 #@! TO.C,10 k\03A9*
X134850000Y-81250000D02*
X134850000Y-77350000D01*
X134850000Y-77350000D02*
X120560000Y-77350000D01*
X120560000Y-77350000D02*
X120560000Y-81250000D01*
X120560000Y-81250000D02*
X134850000Y-81250000D01*
G04 #@! TO.C,*
X134840000Y-81350000D02*
X120550000Y-81350000D01*
X134840000Y-85250000D02*
X134840000Y-81350000D01*
X120550000Y-85250000D02*
X134840000Y-85250000D01*
X120550000Y-81350000D02*
X120550000Y-85250000D01*
X146150000Y-132350000D02*
X159450000Y-132350000D01*
X159450000Y-132350000D02*
X159450000Y-117950000D01*
X159450000Y-117950000D02*
X146150000Y-117950000D01*
X146150000Y-117950000D02*
X146150000Y-132350000D01*
G04 #@! TO.C,Synapse 1*
X39850000Y-41650000D02*
X25450000Y-41650000D01*
X39850000Y-54950000D02*
X39850000Y-41650000D01*
X25450000Y-54950000D02*
X39850000Y-54950000D01*
X25450000Y-41650000D02*
X25450000Y-54950000D01*
G04 #@! TO.C,Synapse 2*
X39850000Y-79150000D02*
X25450000Y-79150000D01*
X39850000Y-92450000D02*
X39850000Y-79150000D01*
X25450000Y-92450000D02*
X39850000Y-92450000D01*
X25450000Y-79150000D02*
X25450000Y-92450000D01*
G04 #@! TO.C,1 uF*
X134600000Y-45000000D02*
G75*
G03X134600000Y-45000000I-2750000J0D01*
G01*
X89600000Y-35100000D02*
G75*
G03X89600000Y-35100000I-2750000J0D01*
G01*
G04 #@! TO.C,LED*
X128050000Y-123250000D02*
X128050000Y-127750000D01*
X128050000Y-127750000D02*
X132900000Y-127750000D01*
X132900000Y-127750000D02*
X132900000Y-123250000D01*
X132900000Y-123250000D02*
X128050000Y-123250000D01*
G04 #@! TO.C,*
X134840000Y-73350000D02*
X120550000Y-73350000D01*
X134840000Y-77250000D02*
X134840000Y-73350000D01*
X120550000Y-77250000D02*
X134840000Y-77250000D01*
X120550000Y-73350000D02*
X120550000Y-77250000D01*
G04 #@! TO.C,1 nF*
X132800000Y-63900000D02*
G75*
G03X132800000Y-63900000I-2750000J0D01*
G01*
G04 #@! TO.C,10 \03A9*
X120560000Y-73250000D02*
X134850000Y-73250000D01*
X120560000Y-69350000D02*
X120560000Y-73250000D01*
X134850000Y-69350000D02*
X120560000Y-69350000D01*
X134850000Y-73250000D02*
X134850000Y-69350000D01*
G04 #@! TO.C,5V*
X118450000Y-25200000D02*
X127950000Y-25200000D01*
X118450000Y-34200000D02*
X118450000Y-25200000D01*
X116450000Y-34200000D02*
X118450000Y-34200000D01*
X116450000Y-38200000D02*
X116450000Y-34200000D01*
X118450000Y-38200000D02*
X116450000Y-38200000D01*
X118450000Y-40200000D02*
X118450000Y-38200000D01*
X121200000Y-40200000D02*
X118450000Y-40200000D01*
X121200000Y-41200000D02*
X121200000Y-40200000D01*
X125200000Y-41200000D02*
X121200000Y-41200000D01*
X125200000Y-40200000D02*
X125200000Y-41200000D01*
X127700000Y-40200000D02*
X125200000Y-40200000D01*
X127950000Y-40200000D02*
X127950000Y-25200000D01*
X127700000Y-40200000D02*
X127950000Y-40200000D01*
G04 #@! TO.C,*
X90450000Y-60700000D02*
X87700000Y-60700000D01*
X90450000Y-60700000D02*
X90450000Y-58300000D01*
X87700000Y-58300000D02*
X87700000Y-60700000D01*
X87700000Y-58300000D02*
X90450000Y-58300000D01*
G04 #@! TD*
M02*
