G04 #@! TF.GenerationSoftware,KiCad,Pcbnew,(5.0.0)*
G04 #@! TF.CreationDate,2019-02-04T02:42:20+00:00*
G04 #@! TF.ProjectId,Maxime_Spikeling,4D6178696D655F5370696B656C696E67,rev?*
G04 #@! TF.SameCoordinates,Original*
G04 #@! TF.FileFunction,Copper,L1,Top,Signal*
G04 #@! TF.FilePolarity,Positive*
%FSLAX46Y46*%
G04 Gerber Fmt 4.6, Leading zero omitted, Abs format (unit mm)*
G04 Created by KiCad (PCBNEW (5.0.0)) date 02/04/19 02:42:20*
%MOMM*%
%LPD*%
G01*
G04 APERTURE LIST*
G04 #@! TA.AperFunction,ComponentPad*
%ADD10C,1.400000*%
G04 #@! TD*
G04 #@! TA.AperFunction,ComponentPad*
%ADD11O,2.400000X1.600000*%
G04 #@! TD*
G04 #@! TA.AperFunction,ComponentPad*
%ADD12R,2.400000X1.600000*%
G04 #@! TD*
G04 #@! TA.AperFunction,ComponentPad*
%ADD13R,1.600000X1.600000*%
G04 #@! TD*
G04 #@! TA.AperFunction,ComponentPad*
%ADD14O,1.600000X1.600000*%
G04 #@! TD*
G04 #@! TA.AperFunction,ComponentPad*
%ADD15C,2.500000*%
G04 #@! TD*
G04 #@! TA.AperFunction,ComponentPad*
%ADD16O,1.600000X2.400000*%
G04 #@! TD*
G04 #@! TA.AperFunction,ComponentPad*
%ADD17R,1.600000X2.400000*%
G04 #@! TD*
G04 #@! TA.AperFunction,ComponentPad*
%ADD18R,2.000000X2.000000*%
G04 #@! TD*
G04 #@! TA.AperFunction,ComponentPad*
%ADD19C,2.000000*%
G04 #@! TD*
G04 #@! TA.AperFunction,ComponentPad*
%ADD20C,1.800000*%
G04 #@! TD*
G04 #@! TA.AperFunction,WasherPad*
%ADD21C,4.000000*%
G04 #@! TD*
G04 #@! TA.AperFunction,ComponentPad*
%ADD22R,1.800000X1.800000*%
G04 #@! TD*
G04 #@! TA.AperFunction,ComponentPad*
%ADD23C,1.600000*%
G04 #@! TD*
G04 #@! TA.AperFunction,Conductor*
%ADD24C,0.100000*%
G04 #@! TD*
G04 #@! TA.AperFunction,ComponentPad*
%ADD25C,3.500000*%
G04 #@! TD*
G04 #@! TA.AperFunction,ComponentPad*
%ADD26C,3.000000*%
G04 #@! TD*
G04 #@! TA.AperFunction,ComponentPad*
%ADD27R,3.500000X3.500000*%
G04 #@! TD*
G04 #@! TA.AperFunction,ViaPad*
%ADD28C,0.800000*%
G04 #@! TD*
G04 #@! TA.AperFunction,Conductor*
%ADD29C,0.250000*%
G04 #@! TD*
G04 #@! TA.AperFunction,Conductor*
%ADD30C,0.500000*%
G04 #@! TD*
G04 APERTURE END LIST*
D10*
G04 #@! TO.P,,1*
G04 #@! TO.N,Net-(C1-Pad1)*
X86560000Y-59500000D03*
G04 #@! TD*
D11*
G04 #@! TO.P,,14*
G04 #@! TO.N,Net-(C1-Pad1)*
X123720000Y-49800000D03*
G04 #@! TO.P,,7*
G04 #@! TO.N,GNDREF*
X116100000Y-65040000D03*
G04 #@! TO.P,,13*
G04 #@! TO.N,Net-(C1-Pad2)*
X123720000Y-52340000D03*
G04 #@! TO.P,,6*
G04 #@! TO.N,Net-(R6-Pad2)*
X116100000Y-62500000D03*
G04 #@! TO.P,,12*
G04 #@! TO.N,Net-(U2-Pad12)*
X123720000Y-54880000D03*
G04 #@! TO.P,,5*
G04 #@! TO.N,Net-(U2-Pad5)*
X116100000Y-59960000D03*
G04 #@! TO.P,,11*
G04 #@! TO.N,Net-(U2-Pad11)*
X123720000Y-57420000D03*
G04 #@! TO.P,,4*
G04 #@! TO.N,GNDREF*
X116100000Y-57420000D03*
G04 #@! TO.P,,10*
X123720000Y-59960000D03*
G04 #@! TO.P,,3*
G04 #@! TO.N,Net-(BZ1-Pad1)*
X116100000Y-54880000D03*
G04 #@! TO.P,,9*
G04 #@! TO.N,Net-(U2-Pad9)*
X123720000Y-62500000D03*
G04 #@! TO.P,,2*
G04 #@! TO.N,Net-(U2-Pad2)*
X116100000Y-52340000D03*
G04 #@! TO.P,,8*
G04 #@! TO.N,Net-(U2-Pad8)*
X123720000Y-65040000D03*
D12*
G04 #@! TO.P,,1*
G04 #@! TO.N,GNDREF*
X116100000Y-49800000D03*
G04 #@! TD*
D13*
G04 #@! TO.P,,1*
G04 #@! TO.N,Net-(U1-Pad3)*
X94100000Y-67770000D03*
D14*
G04 #@! TO.P,,15*
G04 #@! TO.N,Net-(U2-Pad2)*
X89020000Y-47440000D03*
G04 #@! TO.P,,18*
G04 #@! TO.N,Net-(U3-Pad18)*
X81500000Y-47440000D03*
G04 #@! TO.P,,14*
G04 #@! TO.N,Net-(U2-Pad5)*
X91560000Y-47440000D03*
G04 #@! TO.P,,19*
G04 #@! TO.N,Net-(U1-Pad7)*
X78960000Y-47440000D03*
G04 #@! TO.P,,12*
G04 #@! TO.N,Net-(U3-Pad12)*
X66260000Y-67770000D03*
G04 #@! TO.P,,20*
G04 #@! TO.N,Net-(U3-Pad20)*
X76420000Y-47440000D03*
G04 #@! TO.P,,11*
G04 #@! TO.N,GNDREF*
X68800000Y-67770000D03*
G04 #@! TO.P,,21*
G04 #@! TO.N,Net-(U3-Pad21)*
X73880000Y-47440000D03*
G04 #@! TO.P,,10*
G04 #@! TO.N,Net-(U3-Pad10)*
X71340000Y-67770000D03*
G04 #@! TO.P,,22*
G04 #@! TO.N,Net-(U3-Pad22)*
X71340000Y-47440000D03*
G04 #@! TO.P,,9*
G04 #@! TO.N,Net-(U3-Pad9)*
X73880000Y-67770000D03*
G04 #@! TO.P,,23*
G04 #@! TO.N,Net-(U3-Pad23)*
X68800000Y-47440000D03*
G04 #@! TO.P,,8*
G04 #@! TO.N,Net-(U3-Pad8)*
X76420000Y-67770000D03*
G04 #@! TO.P,,24*
G04 #@! TO.N,Net-(U3-Pad24)*
X66260000Y-47440000D03*
G04 #@! TO.P,,7*
G04 #@! TO.N,Net-(U1-Pad1)*
X78960000Y-67770000D03*
G04 #@! TO.P,,25*
G04 #@! TO.N,GNDREF*
X63720000Y-47440000D03*
G04 #@! TO.P,,6*
G04 #@! TO.N,Net-(U3-Pad6)*
X81500000Y-67770000D03*
G04 #@! TO.P,,26*
G04 #@! TO.N,Net-(U3-Pad26)*
X61180000Y-47440000D03*
G04 #@! TO.P,,5*
G04 #@! TO.N,Net-(U3-Pad5)*
X84040000Y-67770000D03*
G04 #@! TO.P,,27*
G04 #@! TO.N,Net-(C1-Pad1)*
X58640000Y-47440000D03*
G04 #@! TO.P,,4*
G04 #@! TO.N,Net-(U3-Pad4)*
X86580000Y-67770000D03*
G04 #@! TO.P,,28*
G04 #@! TO.N,Net-(U3-Pad28)*
X56100000Y-47440000D03*
G04 #@! TO.P,,3*
G04 #@! TO.N,Net-(U3-Pad3)*
X89120000Y-67770000D03*
G04 #@! TO.P,,2*
G04 #@! TO.N,Net-(U1-Pad2)*
X91660000Y-67770000D03*
G04 #@! TO.P,,17*
G04 #@! TO.N,Net-(U3-Pad17)*
X83940000Y-47440000D03*
G04 #@! TO.P,,16*
G04 #@! TO.N,Net-(U3-Pad16)*
X86480000Y-47440000D03*
G04 #@! TO.P,,13*
G04 #@! TO.N,Net-(U3-Pad13)*
X94100000Y-47440000D03*
G04 #@! TD*
D15*
G04 #@! TO.P,Digital In 1,1*
G04 #@! TO.N,Net-(J1-Pad1)*
X32700000Y-32700000D03*
G04 #@! TO.P,Digital In 1,2*
G04 #@! TO.N,GNDREF*
X37780000Y-37780000D03*
X37780000Y-27620000D03*
X27620000Y-27620000D03*
X27620000Y-37780000D03*
G04 #@! TD*
G04 #@! TO.P,Digital In 2,1*
G04 #@! TO.N,Net-(J2-Pad1)*
X32800000Y-70400000D03*
G04 #@! TO.P,Digital In 2,2*
G04 #@! TO.N,GNDREF*
X37880000Y-75480000D03*
X37880000Y-65320000D03*
X27720000Y-65320000D03*
X27720000Y-75480000D03*
G04 #@! TD*
G04 #@! TO.P,Analog In,1*
G04 #@! TO.N,Net-(J4-Pad1)*
X32700000Y-110400000D03*
G04 #@! TO.P,Analog In,2*
G04 #@! TO.N,GNDREF*
X37780000Y-115480000D03*
X37780000Y-105320000D03*
X27620000Y-105320000D03*
X27620000Y-115480000D03*
G04 #@! TD*
G04 #@! TO.P,Stimulus,1*
G04 #@! TO.N,Net-(J3-Pad1)*
X152800000Y-110000000D03*
G04 #@! TO.P,Stimulus,2*
G04 #@! TO.N,GNDREF*
X157880000Y-115080000D03*
X157880000Y-104920000D03*
X147720000Y-104920000D03*
X147720000Y-115080000D03*
G04 #@! TD*
G04 #@! TO.P,Digital Out,1*
G04 #@! TO.N,Net-(BZ1-Pad1)*
X152400000Y-70300000D03*
G04 #@! TO.P,Digital Out,2*
G04 #@! TO.N,GNDREF*
X157480000Y-75380000D03*
X157480000Y-65220000D03*
X147320000Y-65220000D03*
X147320000Y-75380000D03*
G04 #@! TD*
G04 #@! TO.P,Analog Out,1*
G04 #@! TO.N,Net-(C3-Pad1)*
X152400000Y-32600000D03*
G04 #@! TO.P,Analog Out,2*
G04 #@! TO.N,GNDREF*
X157480000Y-37680000D03*
X157480000Y-27520000D03*
X147320000Y-27520000D03*
X147320000Y-37680000D03*
G04 #@! TD*
D16*
G04 #@! TO.P,,16*
G04 #@! TO.N,Net-(C1-Pad1)*
X94300000Y-31280000D03*
G04 #@! TO.P,,8*
G04 #@! TO.N,Net-(U4-Pad8)*
X112080000Y-38900000D03*
G04 #@! TO.P,,15*
G04 #@! TO.N,Net-(C1-Pad1)*
X96840000Y-31280000D03*
G04 #@! TO.P,,7*
G04 #@! TO.N,Net-(J4-Pad1)*
X109540000Y-38900000D03*
G04 #@! TO.P,,14*
G04 #@! TO.N,GNDREF*
X99380000Y-31280000D03*
G04 #@! TO.P,,6*
G04 #@! TO.N,Net-(StimPot1-Pad2)*
X107000000Y-38900000D03*
G04 #@! TO.P,,13*
G04 #@! TO.N,Net-(U1-Pad1)*
X101920000Y-31280000D03*
G04 #@! TO.P,,5*
G04 #@! TO.N,Net-(Syn2-Pad2)*
X104460000Y-38900000D03*
G04 #@! TO.P,,12*
G04 #@! TO.N,Net-(U1-Pad3)*
X104460000Y-31280000D03*
G04 #@! TO.P,,4*
G04 #@! TO.N,Net-(Syn1-Pad5)*
X101920000Y-38900000D03*
G04 #@! TO.P,,11*
G04 #@! TO.N,Net-(U1-Pad2)*
X107000000Y-31280000D03*
G04 #@! TO.P,,3*
G04 #@! TO.N,Net-(J8-Pad1)*
X99380000Y-38900000D03*
G04 #@! TO.P,,10*
G04 #@! TO.N,Net-(U3-Pad9)*
X109540000Y-31280000D03*
G04 #@! TO.P,,2*
G04 #@! TO.N,Net-(Noise1-Pad2)*
X96840000Y-38900000D03*
G04 #@! TO.P,,9*
G04 #@! TO.N,GNDREF*
X112080000Y-31280000D03*
D17*
G04 #@! TO.P,,1*
G04 #@! TO.N,Net-(U4-Pad1)*
X94300000Y-38900000D03*
G04 #@! TD*
D16*
G04 #@! TO.P,,14*
G04 #@! TO.N,Net-(U5-Pad2)*
X62480000Y-106290000D03*
G04 #@! TO.P,,7*
G04 #@! TO.N,Net-(U5-Pad6)*
X77720000Y-113910000D03*
G04 #@! TO.P,,13*
G04 #@! TO.N,Net-(U5-Pad20)*
X65020000Y-106290000D03*
G04 #@! TO.P,,6*
G04 #@! TO.N,Net-(U5-Pad11)*
X75180000Y-113910000D03*
G04 #@! TO.P,,12*
G04 #@! TO.N,Net-(U5-Pad16)*
X67560000Y-106290000D03*
G04 #@! TO.P,,5*
G04 #@! TO.N,Net-(U5-Pad23)*
X72640000Y-113910000D03*
G04 #@! TO.P,,11*
G04 #@! TO.N,Net-(U5-Pad14)*
X70100000Y-106290000D03*
G04 #@! TO.P,,4*
G04 #@! TO.N,Net-(U5-Pad21)*
X70100000Y-113910000D03*
G04 #@! TO.P,,10*
G04 #@! TO.N,Net-(U5-Pad22)*
X72640000Y-106290000D03*
G04 #@! TO.P,,3*
G04 #@! TO.N,Net-(U5-Pad15)*
X67560000Y-113910000D03*
G04 #@! TO.P,,9*
G04 #@! TO.N,Net-(U5-Pad11)*
X75180000Y-106290000D03*
G04 #@! TO.P,,2*
G04 #@! TO.N,Net-(U5-Pad17)*
X65020000Y-113910000D03*
G04 #@! TO.P,,8*
G04 #@! TO.N,Net-(U5-Pad6)*
X77720000Y-106290000D03*
D17*
G04 #@! TO.P,,1*
G04 #@! TO.N,Net-(U5-Pad2)*
X62480000Y-113910000D03*
G04 #@! TD*
D16*
G04 #@! TO.P,,14*
G04 #@! TO.N,Net-(U5-Pad7)*
X92980000Y-106290000D03*
G04 #@! TO.P,,7*
G04 #@! TO.N,Net-(U5-Pad10)*
X108220000Y-113910000D03*
G04 #@! TO.P,,13*
G04 #@! TO.N,Net-(U5-Pad20)*
X95520000Y-106290000D03*
G04 #@! TO.P,,6*
G04 #@! TO.N,Net-(U5-Pad3)*
X105680000Y-113910000D03*
G04 #@! TO.P,,12*
G04 #@! TO.N,Net-(U5-Pad16)*
X98060000Y-106290000D03*
G04 #@! TO.P,,5*
G04 #@! TO.N,Net-(U5-Pad23)*
X103140000Y-113910000D03*
G04 #@! TO.P,,11*
G04 #@! TO.N,Net-(U5-Pad14)*
X100600000Y-106290000D03*
G04 #@! TO.P,,4*
G04 #@! TO.N,Net-(U5-Pad21)*
X100600000Y-113910000D03*
G04 #@! TO.P,,10*
G04 #@! TO.N,Net-(U5-Pad22)*
X103140000Y-106290000D03*
G04 #@! TO.P,,3*
G04 #@! TO.N,Net-(U5-Pad15)*
X98060000Y-113910000D03*
G04 #@! TO.P,,9*
G04 #@! TO.N,Net-(U5-Pad3)*
X105680000Y-106290000D03*
G04 #@! TO.P,,2*
G04 #@! TO.N,Net-(U5-Pad17)*
X95520000Y-113910000D03*
G04 #@! TO.P,,8*
G04 #@! TO.N,Net-(U5-Pad10)*
X108220000Y-106290000D03*
D17*
G04 #@! TO.P,,1*
G04 #@! TO.N,Net-(U5-Pad7)*
X92980000Y-113910000D03*
G04 #@! TD*
D18*
G04 #@! TO.P,Speaker,1*
G04 #@! TO.N,Net-(BZ1-Pad1)*
X135600000Y-110100000D03*
D19*
G04 #@! TO.P,Speaker,2*
G04 #@! TO.N,GNDREF*
X125600000Y-110100000D03*
G04 #@! TD*
G04 #@! TO.P,Mode,1*
G04 #@! TO.N,Net-(C1-Pad1)*
X111700000Y-122900000D03*
G04 #@! TO.P,Mode,2*
G04 #@! TO.N,Net-(J7-Pad2)*
X116700000Y-122900000D03*
G04 #@! TO.P,Mode,4*
G04 #@! TO.N,N/C*
X116700000Y-127900000D03*
G04 #@! TO.P,Mode,3*
X111700000Y-127900000D03*
G04 #@! TD*
D20*
G04 #@! TO.P,Vm,3*
G04 #@! TO.N,GNDREF*
X89900000Y-131600000D03*
G04 #@! TO.P,Vm,2*
G04 #@! TO.N,Net-(U4-Pad1)*
X92400000Y-131600000D03*
G04 #@! TO.P,Vm,1*
G04 #@! TO.N,Net-(C1-Pad1)*
X94900000Y-131600000D03*
D21*
G04 #@! TO.P,Vm,*
G04 #@! TO.N,*
X88000000Y-124600000D03*
X96800000Y-124600000D03*
G04 #@! TD*
D20*
G04 #@! TO.P,,3*
G04 #@! TO.N,GNDREF*
X66400000Y-131600000D03*
G04 #@! TO.P,,2*
G04 #@! TO.N,Net-(Noise1-Pad2)*
X68900000Y-131600000D03*
G04 #@! TO.P,,1*
G04 #@! TO.N,Net-(C1-Pad1)*
X71400000Y-131600000D03*
D21*
G04 #@! TO.P,,*
G04 #@! TO.N,*
X64500000Y-124600000D03*
X73300000Y-124600000D03*
G04 #@! TD*
D16*
G04 #@! TO.P,,24*
G04 #@! TO.N,Net-(U1-Pad3)*
X78800000Y-76380000D03*
G04 #@! TO.P,,12*
G04 #@! TO.N,Net-(U3-Pad20)*
X106740000Y-84000000D03*
G04 #@! TO.P,,23*
G04 #@! TO.N,Net-(U5-Pad23)*
X81340000Y-76380000D03*
G04 #@! TO.P,,11*
G04 #@! TO.N,Net-(U5-Pad11)*
X104200000Y-84000000D03*
G04 #@! TO.P,,22*
G04 #@! TO.N,Net-(U5-Pad22)*
X83880000Y-76380000D03*
G04 #@! TO.P,,10*
G04 #@! TO.N,Net-(U5-Pad10)*
X101660000Y-84000000D03*
G04 #@! TO.P,,21*
G04 #@! TO.N,Net-(U5-Pad21)*
X86420000Y-76380000D03*
G04 #@! TO.P,,9*
G04 #@! TO.N,GNDREF*
X99120000Y-84000000D03*
G04 #@! TO.P,,20*
G04 #@! TO.N,Net-(U5-Pad20)*
X88960000Y-76380000D03*
G04 #@! TO.P,,8*
G04 #@! TO.N,Net-(U5-Pad8)*
X96580000Y-84000000D03*
G04 #@! TO.P,,19*
G04 #@! TO.N,N/C*
X91500000Y-76380000D03*
G04 #@! TO.P,,7*
G04 #@! TO.N,Net-(U5-Pad7)*
X94040000Y-84000000D03*
G04 #@! TO.P,,18*
G04 #@! TO.N,Net-(U5-Pad18)*
X94040000Y-76380000D03*
G04 #@! TO.P,,6*
G04 #@! TO.N,Net-(U5-Pad6)*
X91500000Y-84000000D03*
G04 #@! TO.P,,17*
G04 #@! TO.N,Net-(U5-Pad17)*
X96580000Y-76380000D03*
G04 #@! TO.P,,5*
G04 #@! TO.N,Net-(U5-Pad5)*
X88960000Y-84000000D03*
G04 #@! TO.P,,16*
G04 #@! TO.N,Net-(U5-Pad16)*
X99120000Y-76380000D03*
G04 #@! TO.P,,4*
G04 #@! TO.N,GNDREF*
X86420000Y-84000000D03*
G04 #@! TO.P,,15*
G04 #@! TO.N,Net-(U5-Pad15)*
X101660000Y-76380000D03*
G04 #@! TO.P,,3*
G04 #@! TO.N,Net-(U5-Pad3)*
X83880000Y-84000000D03*
G04 #@! TO.P,,14*
G04 #@! TO.N,Net-(U5-Pad14)*
X104200000Y-76380000D03*
G04 #@! TO.P,,2*
G04 #@! TO.N,Net-(U5-Pad2)*
X81340000Y-84000000D03*
G04 #@! TO.P,,13*
G04 #@! TO.N,Net-(U1-Pad1)*
X106740000Y-76380000D03*
D17*
G04 #@! TO.P,,1*
G04 #@! TO.N,Net-(U1-Pad2)*
X78800000Y-84000000D03*
G04 #@! TD*
D16*
G04 #@! TO.P,,18*
G04 #@! TO.N,Net-(C1-Pad1)*
X58500000Y-31180000D03*
G04 #@! TO.P,,9*
G04 #@! TO.N,GNDREF*
X78820000Y-38800000D03*
G04 #@! TO.P,,17*
G04 #@! TO.N,Net-(U1-Pad17)*
X61040000Y-31180000D03*
G04 #@! TO.P,,8*
G04 #@! TO.N,Net-(U1-Pad8)*
X76280000Y-38800000D03*
G04 #@! TO.P,,16*
G04 #@! TO.N,Net-(U1-Pad16)*
X63580000Y-31180000D03*
G04 #@! TO.P,,7*
G04 #@! TO.N,Net-(U1-Pad7)*
X73740000Y-38800000D03*
G04 #@! TO.P,,15*
G04 #@! TO.N,Net-(U1-Pad15)*
X66120000Y-31180000D03*
G04 #@! TO.P,,6*
G04 #@! TO.N,Net-(C1-Pad1)*
X71200000Y-38800000D03*
G04 #@! TO.P,,14*
G04 #@! TO.N,Net-(J3-Pad1)*
X68660000Y-31180000D03*
G04 #@! TO.P,,5*
G04 #@! TO.N,GNDREF*
X68660000Y-38800000D03*
G04 #@! TO.P,,13*
G04 #@! TO.N,Net-(J2-Pad1)*
X71200000Y-31180000D03*
G04 #@! TO.P,,4*
G04 #@! TO.N,GNDREF*
X66120000Y-38800000D03*
G04 #@! TO.P,,12*
G04 #@! TO.N,Net-(J1-Pad1)*
X73740000Y-31180000D03*
G04 #@! TO.P,,3*
G04 #@! TO.N,Net-(U1-Pad3)*
X63580000Y-38800000D03*
G04 #@! TO.P,,11*
G04 #@! TO.N,Net-(J7-Pad2)*
X76280000Y-31180000D03*
G04 #@! TO.P,,2*
G04 #@! TO.N,Net-(U1-Pad2)*
X61040000Y-38800000D03*
G04 #@! TO.P,,10*
G04 #@! TO.N,Net-(R3-Pad1)*
X78820000Y-31180000D03*
D17*
G04 #@! TO.P,,1*
G04 #@! TO.N,Net-(U1-Pad1)*
X58500000Y-38800000D03*
G04 #@! TD*
D22*
G04 #@! TO.P,J8,1*
G04 #@! TO.N,Net-(J8-Pad1)*
X42200000Y-125300000D03*
D20*
G04 #@! TO.P,J8,2*
G04 #@! TO.N,Net-(J8-Pad2)*
X44740000Y-125300000D03*
G04 #@! TD*
D23*
G04 #@! TO.P,10 k\03A9,1*
G04 #@! TO.N,GNDREF*
X133800000Y-79300000D03*
D14*
G04 #@! TO.P,10 k\03A9,2*
G04 #@! TO.N,Net-(J7-Pad2)*
X121620000Y-79300000D03*
G04 #@! TD*
G04 #@! TO.P,,2*
G04 #@! TO.N,GNDREF*
X133780000Y-83300000D03*
D23*
G04 #@! TO.P,,1*
G04 #@! TO.N,Net-(J8-Pad2)*
X121600000Y-83300000D03*
G04 #@! TD*
D20*
G04 #@! TO.P,,3*
G04 #@! TO.N,GNDREF*
X150300000Y-131200000D03*
G04 #@! TO.P,,2*
G04 #@! TO.N,Net-(StimPot1-Pad2)*
X152800000Y-131200000D03*
G04 #@! TO.P,,1*
G04 #@! TO.N,Net-(C1-Pad1)*
X155300000Y-131200000D03*
D21*
G04 #@! TO.P,,*
G04 #@! TO.N,*
X148400000Y-124200000D03*
X157200000Y-124200000D03*
G04 #@! TD*
G04 #@! TO.P,Synapse 1,*
G04 #@! TO.N,*
X33600000Y-52700000D03*
X33600000Y-43900000D03*
D20*
G04 #@! TO.P,Synapse 1,1*
G04 #@! TO.N,Net-(C1-Pad1)*
X26600000Y-50800000D03*
G04 #@! TO.P,Synapse 1,2*
G04 #@! TO.N,Net-(Syn1-Pad5)*
X26600000Y-48300000D03*
G04 #@! TO.P,Synapse 1,3*
G04 #@! TO.N,GNDREF*
X26600000Y-45800000D03*
G04 #@! TD*
D21*
G04 #@! TO.P,Synapse 2,*
G04 #@! TO.N,*
X33600000Y-90200000D03*
X33600000Y-81400000D03*
D20*
G04 #@! TO.P,Synapse 2,1*
G04 #@! TO.N,Net-(C1-Pad1)*
X26600000Y-88300000D03*
G04 #@! TO.P,Synapse 2,2*
G04 #@! TO.N,Net-(Syn2-Pad2)*
X26600000Y-85800000D03*
G04 #@! TO.P,Synapse 2,3*
G04 #@! TO.N,GNDREF*
X26600000Y-83300000D03*
G04 #@! TD*
D13*
G04 #@! TO.P,1 uF,1*
G04 #@! TO.N,Net-(C1-Pad1)*
X130600000Y-45000000D03*
D23*
G04 #@! TO.P,1 uF,2*
G04 #@! TO.N,Net-(C1-Pad2)*
X133100000Y-45000000D03*
G04 #@! TD*
G04 #@! TO.P,1 uF,2*
G04 #@! TO.N,GNDREF*
X85600000Y-35100000D03*
D13*
G04 #@! TO.P,1 uF,1*
G04 #@! TO.N,Net-(C1-Pad1)*
X88100000Y-35100000D03*
G04 #@! TD*
D22*
G04 #@! TO.P,LED,1*
G04 #@! TO.N,GNDREF*
X129200000Y-125500000D03*
D20*
G04 #@! TO.P,LED,2*
G04 #@! TO.N,Net-(D1-Pad2)*
X131740000Y-125500000D03*
G04 #@! TD*
D14*
G04 #@! TO.P,,2*
G04 #@! TO.N,Net-(D1-Pad2)*
X133780000Y-75300000D03*
D23*
G04 #@! TO.P,,1*
G04 #@! TO.N,Net-(R3-Pad1)*
X121600000Y-75300000D03*
G04 #@! TD*
D13*
G04 #@! TO.P,1 nF,1*
G04 #@! TO.N,Net-(C3-Pad1)*
X131300000Y-63900000D03*
D23*
G04 #@! TO.P,1 nF,2*
G04 #@! TO.N,GNDREF*
X128800000Y-63900000D03*
G04 #@! TD*
D14*
G04 #@! TO.P,10 \03A9,2*
G04 #@! TO.N,Net-(R6-Pad2)*
X121620000Y-71300000D03*
D23*
G04 #@! TO.P,10 \03A9,1*
G04 #@! TO.N,Net-(C3-Pad1)*
X133800000Y-71300000D03*
G04 #@! TD*
D24*
G04 #@! TO.N,GNDREF*
G04 #@! TO.C,5V*
G36*
X119460765Y-34454213D02*
X119545704Y-34466813D01*
X119628999Y-34487677D01*
X119709848Y-34516605D01*
X119787472Y-34553319D01*
X119861124Y-34597464D01*
X119930094Y-34648616D01*
X119993718Y-34706282D01*
X120051384Y-34769906D01*
X120102536Y-34838876D01*
X120146681Y-34912528D01*
X120183395Y-34990152D01*
X120212323Y-35071001D01*
X120233187Y-35154296D01*
X120245787Y-35239235D01*
X120250000Y-35325000D01*
X120250000Y-37075000D01*
X120245787Y-37160765D01*
X120233187Y-37245704D01*
X120212323Y-37328999D01*
X120183395Y-37409848D01*
X120146681Y-37487472D01*
X120102536Y-37561124D01*
X120051384Y-37630094D01*
X119993718Y-37693718D01*
X119930094Y-37751384D01*
X119861124Y-37802536D01*
X119787472Y-37846681D01*
X119709848Y-37883395D01*
X119628999Y-37912323D01*
X119545704Y-37933187D01*
X119460765Y-37945787D01*
X119375000Y-37950000D01*
X117625000Y-37950000D01*
X117539235Y-37945787D01*
X117454296Y-37933187D01*
X117371001Y-37912323D01*
X117290152Y-37883395D01*
X117212528Y-37846681D01*
X117138876Y-37802536D01*
X117069906Y-37751384D01*
X117006282Y-37693718D01*
X116948616Y-37630094D01*
X116897464Y-37561124D01*
X116853319Y-37487472D01*
X116816605Y-37409848D01*
X116787677Y-37328999D01*
X116766813Y-37245704D01*
X116754213Y-37160765D01*
X116750000Y-37075000D01*
X116750000Y-35325000D01*
X116754213Y-35239235D01*
X116766813Y-35154296D01*
X116787677Y-35071001D01*
X116816605Y-34990152D01*
X116853319Y-34912528D01*
X116897464Y-34838876D01*
X116948616Y-34769906D01*
X117006282Y-34706282D01*
X117069906Y-34648616D01*
X117138876Y-34597464D01*
X117212528Y-34553319D01*
X117290152Y-34516605D01*
X117371001Y-34487677D01*
X117454296Y-34466813D01*
X117539235Y-34454213D01*
X117625000Y-34450000D01*
X119375000Y-34450000D01*
X119460765Y-34454213D01*
X119460765Y-34454213D01*
G37*
D25*
G04 #@! TD*
G04 #@! TO.P,5V,3*
G04 #@! TO.N,GNDREF*
X118500000Y-36200000D03*
D24*
G04 #@! TO.N,GNDREF*
G04 #@! TO.C,5V*
G36*
X124273513Y-31703611D02*
X124346318Y-31714411D01*
X124417714Y-31732295D01*
X124487013Y-31757090D01*
X124553548Y-31788559D01*
X124616678Y-31826398D01*
X124675795Y-31870242D01*
X124730330Y-31919670D01*
X124779758Y-31974205D01*
X124823602Y-32033322D01*
X124861441Y-32096452D01*
X124892910Y-32162987D01*
X124917705Y-32232286D01*
X124935589Y-32303682D01*
X124946389Y-32376487D01*
X124950000Y-32450000D01*
X124950000Y-33950000D01*
X124946389Y-34023513D01*
X124935589Y-34096318D01*
X124917705Y-34167714D01*
X124892910Y-34237013D01*
X124861441Y-34303548D01*
X124823602Y-34366678D01*
X124779758Y-34425795D01*
X124730330Y-34480330D01*
X124675795Y-34529758D01*
X124616678Y-34573602D01*
X124553548Y-34611441D01*
X124487013Y-34642910D01*
X124417714Y-34667705D01*
X124346318Y-34685589D01*
X124273513Y-34696389D01*
X124200000Y-34700000D01*
X122200000Y-34700000D01*
X122126487Y-34696389D01*
X122053682Y-34685589D01*
X121982286Y-34667705D01*
X121912987Y-34642910D01*
X121846452Y-34611441D01*
X121783322Y-34573602D01*
X121724205Y-34529758D01*
X121669670Y-34480330D01*
X121620242Y-34425795D01*
X121576398Y-34366678D01*
X121538559Y-34303548D01*
X121507090Y-34237013D01*
X121482295Y-34167714D01*
X121464411Y-34096318D01*
X121453611Y-34023513D01*
X121450000Y-33950000D01*
X121450000Y-32450000D01*
X121453611Y-32376487D01*
X121464411Y-32303682D01*
X121482295Y-32232286D01*
X121507090Y-32162987D01*
X121538559Y-32096452D01*
X121576398Y-32033322D01*
X121620242Y-31974205D01*
X121669670Y-31919670D01*
X121724205Y-31870242D01*
X121783322Y-31826398D01*
X121846452Y-31788559D01*
X121912987Y-31757090D01*
X121982286Y-31732295D01*
X122053682Y-31714411D01*
X122126487Y-31703611D01*
X122200000Y-31700000D01*
X124200000Y-31700000D01*
X124273513Y-31703611D01*
X124273513Y-31703611D01*
G37*
D26*
G04 #@! TD*
G04 #@! TO.P,5V,2*
G04 #@! TO.N,GNDREF*
X123200000Y-33200000D03*
D27*
G04 #@! TO.P,5V,1*
G04 #@! TO.N,N/C*
X123200000Y-39200000D03*
G04 #@! TD*
D10*
G04 #@! TO.P,,1*
G04 #@! TO.N,N/C*
X89100000Y-59500000D03*
G04 #@! TD*
D28*
G04 #@! TO.N,Net-(J7-Pad2)*
X78000000Y-28010000D03*
G04 #@! TO.N,Net-(J2-Pad1)*
X54400000Y-37000000D03*
X51200000Y-40200000D03*
G04 #@! TO.N,Net-(J3-Pad1)*
X74900000Y-28700000D03*
X83700000Y-30800000D03*
G04 #@! TO.N,*
X113700000Y-68500000D03*
X98000000Y-68500000D03*
G04 #@! TO.N,Net-(J3-Pad1)*
X146400000Y-41800000D03*
G04 #@! TO.N,Net-(C1-Pad1)*
X84200000Y-28500000D03*
X63700000Y-130000000D03*
X87100000Y-130000000D03*
G04 #@! TO.N,Net-(U2-Pad5)*
X118700000Y-48500000D03*
G04 #@! TO.N,Net-(J8-Pad1)*
X47400000Y-117700000D03*
G04 #@! TO.N,Net-(J4-Pad1)*
X50800000Y-96200000D03*
G04 #@! TO.N,Net-(Noise1-Pad2)*
X58600000Y-45000000D03*
X53700000Y-45000000D03*
G04 #@! TO.N,Net-(Syn2-Pad2)*
X49500000Y-85800000D03*
G04 #@! TO.N,Net-(R3-Pad1)*
X81340000Y-34100000D03*
G04 #@! TO.N,Net-(U5-Pad14)*
X101700000Y-97000000D03*
X114000000Y-78700000D03*
G04 #@! TO.N,Net-(U3-Pad9)*
X112600000Y-44100000D03*
X115300000Y-41000000D03*
G04 #@! TO.N,Net-(U5-Pad3)*
X96000000Y-88700000D03*
G04 #@! TO.N,Net-(U5-Pad16)*
X96200000Y-102000000D03*
X112750000Y-80650000D03*
G04 #@! TO.N,Net-(U5-Pad20)*
X94100000Y-100600000D03*
G04 #@! TO.N,Net-(U5-Pad21)*
X62050000Y-96600000D03*
X60050000Y-114800000D03*
G04 #@! TO.N,Net-(U5-Pad22)*
X74630000Y-103900000D03*
X75050000Y-92350000D03*
G04 #@! TO.N,Net-(U5-Pad23)*
X64550000Y-90800000D03*
X72650000Y-117100000D03*
X98800000Y-116750000D03*
G04 #@! TO.N,Net-(StimPot1-Pad2)*
X139200000Y-88600000D03*
X139200000Y-96700000D03*
G04 #@! TO.N,Net-(R3-Pad1)*
X121600000Y-43900000D03*
G04 #@! TO.N,Net-(U4-Pad1)*
X57500000Y-43800000D03*
X53700000Y-43800000D03*
X51400000Y-128100000D03*
G04 #@! TO.N,Net-(Syn1-Pad5)*
X49300000Y-57500000D03*
G04 #@! TO.N,Net-(U5-Pad11)*
X89200000Y-90820000D03*
G04 #@! TO.N,Net-(BZ1-Pad1)*
X136600000Y-70300000D03*
G04 #@! TD*
D29*
G04 #@! TO.N,Net-(U1-Pad2)*
X77750000Y-84000000D02*
X75800000Y-82050000D01*
X78800000Y-84000000D02*
X77750000Y-84000000D01*
X91660000Y-67770000D02*
X88230000Y-71200000D01*
X88230000Y-71200000D02*
X79400000Y-71200000D01*
X75800000Y-74800000D02*
X75800000Y-82050000D01*
X79400000Y-71200000D02*
X75800000Y-74800000D01*
X107000000Y-31680000D02*
X107000000Y-31280000D01*
X110420000Y-35100000D02*
X107000000Y-31680000D01*
X61040000Y-39200000D02*
X64740000Y-42900000D01*
X61040000Y-38800000D02*
X61040000Y-39200000D01*
X64740000Y-42900000D02*
X85800000Y-42900000D01*
X93600000Y-35100000D02*
X110420000Y-35100000D01*
X85800000Y-42900000D02*
X93600000Y-35100000D01*
G04 #@! TO.N,Net-(J7-Pad2)*
X123500000Y-81180000D02*
X121620000Y-79300000D01*
X116700000Y-122900000D02*
X123500000Y-116100000D01*
X123500000Y-116100000D02*
X123500000Y-81180000D01*
X79600000Y-26410000D02*
X79600000Y-26400000D01*
X78000000Y-28010000D02*
X79600000Y-26410000D01*
X126700000Y-74220000D02*
X121620000Y-79300000D01*
X79910000Y-26100000D02*
X126800000Y-26100000D01*
X79600000Y-26410000D02*
X79910000Y-26100000D01*
X126800000Y-26100000D02*
X128700000Y-28000000D01*
X128700000Y-28000000D02*
X128700000Y-33200000D01*
X128700000Y-33200000D02*
X135000000Y-39500000D01*
X135000000Y-39500000D02*
X135000000Y-47600000D01*
X135000000Y-47600000D02*
X126800000Y-55800000D01*
X126800000Y-74120000D02*
X126700000Y-74220000D01*
X126800000Y-55800000D02*
X126800000Y-74120000D01*
G04 #@! TO.N,Net-(U1-Pad3)*
X78800000Y-75980000D02*
X82380000Y-72400000D01*
X78800000Y-76380000D02*
X78800000Y-75980000D01*
X94100000Y-68820000D02*
X94100000Y-67770000D01*
X90520000Y-72400000D02*
X94100000Y-68820000D01*
X82380000Y-72400000D02*
X90520000Y-72400000D01*
X94100000Y-67770000D02*
X95150000Y-67770000D01*
X104460000Y-30880000D02*
X104460000Y-31280000D01*
X107940000Y-27400000D02*
X104460000Y-30880000D01*
X63580000Y-38400000D02*
X63580000Y-38800000D01*
X66380000Y-35600000D02*
X63580000Y-38400000D01*
X82300000Y-35600000D02*
X66380000Y-35600000D01*
X107940000Y-27400000D02*
X90500000Y-27400000D01*
X90500000Y-27400000D02*
X82300000Y-35600000D01*
G04 #@! TO.N,Net-(J1-Pad1)*
X35800000Y-29600000D02*
X32700000Y-32700000D01*
X53600000Y-29600000D02*
X35800000Y-29600000D01*
X56100000Y-27100000D02*
X53600000Y-29600000D01*
X70060000Y-27100000D02*
X56100000Y-27100000D01*
X73740000Y-31180000D02*
X73740000Y-30780000D01*
X73740000Y-30780000D02*
X70060000Y-27100000D01*
G04 #@! TO.N,GNDREF*
X81900000Y-38800000D02*
X78820000Y-38800000D01*
X85600000Y-35100000D02*
X81900000Y-38800000D01*
G04 #@! TO.N,Net-(J2-Pad1)*
X71200000Y-31580000D02*
X68680000Y-34100000D01*
X71200000Y-31180000D02*
X71200000Y-31580000D01*
X68680000Y-34100000D02*
X57300000Y-34100000D01*
X57300000Y-34100000D02*
X54400000Y-37000000D01*
X54400000Y-37000000D02*
X54400000Y-37000000D01*
X47200000Y-44200000D02*
X51200000Y-40200000D01*
X32800000Y-70400000D02*
X32800000Y-58600000D01*
X32800000Y-58600000D02*
X47200000Y-44200000D01*
G04 #@! TO.N,Net-(J3-Pad1)*
X75465685Y-28700000D02*
X75765685Y-29000000D01*
X74900000Y-28700000D02*
X75465685Y-28700000D01*
X75765685Y-29000000D02*
X81900000Y-29000000D01*
X81900000Y-29000000D02*
X83700000Y-30800000D01*
X83700000Y-30800000D02*
X83700000Y-30800000D01*
D30*
G04 #@! TO.N,*
X113134315Y-68500000D02*
X113700000Y-68500000D01*
X97930000Y-68500000D02*
X98000000Y-68500000D01*
X91500000Y-74930000D02*
X97930000Y-68500000D01*
X91500000Y-76380000D02*
X91500000Y-74930000D01*
X98000000Y-68500000D02*
X113134315Y-68500000D01*
D29*
G04 #@! TO.N,Net-(J3-Pad1)*
X152800000Y-95300000D02*
X152800000Y-110000000D01*
X155100000Y-93000000D02*
X152800000Y-95300000D01*
G04 #@! TO.N,Net-(C1-Pad1)*
X56420000Y-31180000D02*
X58500000Y-31180000D01*
X53100000Y-34500000D02*
X56420000Y-31180000D01*
X58640000Y-47440000D02*
X53100000Y-41900000D01*
X53100000Y-41900000D02*
X53100000Y-34500000D01*
X96840000Y-31280000D02*
X94300000Y-31280000D01*
X88100000Y-34050000D02*
X88100000Y-35100000D01*
X90870000Y-31280000D02*
X88100000Y-34050000D01*
X94300000Y-31280000D02*
X90870000Y-31280000D01*
X84200000Y-28500000D02*
X84200000Y-28500000D01*
X29800000Y-47600000D02*
X26600000Y-50800000D01*
X53100000Y-34500000D02*
X40000000Y-47600000D01*
X40000000Y-47600000D02*
X29800000Y-47600000D01*
X38100000Y-49500000D02*
X40000000Y-47600000D01*
X31500000Y-49500000D02*
X38100000Y-49500000D01*
X30400000Y-50600000D02*
X31500000Y-49500000D01*
X26600000Y-88300000D02*
X30400000Y-84500000D01*
X30400000Y-84500000D02*
X30400000Y-50600000D01*
X26600000Y-89572792D02*
X30000000Y-92972792D01*
X26600000Y-88300000D02*
X26600000Y-89572792D01*
X30000000Y-92972792D02*
X30000000Y-124100000D01*
X30000000Y-124100000D02*
X30000000Y-125000000D01*
X30000000Y-125000000D02*
X30000000Y-125100000D01*
X30000000Y-125100000D02*
X34900000Y-130000000D01*
X34900000Y-130000000D02*
X63700000Y-130000000D01*
X63700000Y-130000000D02*
X63700000Y-130000000D01*
X93300000Y-130000000D02*
X94900000Y-131600000D01*
X87100000Y-130000000D02*
X93300000Y-130000000D01*
X104600000Y-130000000D02*
X111700000Y-122900000D01*
X93300000Y-130000000D02*
X104600000Y-130000000D01*
X104600000Y-130000000D02*
X108100000Y-130000000D01*
X108125001Y-129974999D02*
X147025001Y-129974999D01*
X108100000Y-130000000D02*
X108125001Y-129974999D01*
X147025001Y-129974999D02*
X147600000Y-129400000D01*
X153500000Y-129400000D02*
X155300000Y-131200000D01*
X147600000Y-129400000D02*
X153500000Y-129400000D01*
X58500000Y-30780000D02*
X58500000Y-31180000D01*
X129100000Y-45000000D02*
X130600000Y-45000000D01*
X127800000Y-43700000D02*
X129100000Y-45000000D01*
X127800000Y-28300000D02*
X127800000Y-43700000D01*
X126100000Y-26600000D02*
X127800000Y-28300000D01*
X84200000Y-28500000D02*
X86100000Y-26600000D01*
X86100000Y-26600000D02*
X126100000Y-26600000D01*
X127800000Y-44670000D02*
X127800000Y-43700000D01*
X123720000Y-48750000D02*
X127800000Y-44670000D01*
X123720000Y-49800000D02*
X123720000Y-48750000D01*
G04 #@! TO.N,Net-(U2-Pad5)*
X116500000Y-59960000D02*
X116100000Y-59960000D01*
X119900000Y-56560000D02*
X116500000Y-59960000D01*
X119900000Y-49700000D02*
X119900000Y-56560000D01*
X118700000Y-48500000D02*
X119900000Y-49700000D01*
G04 #@! TO.N,Net-(C1-Pad2)*
X124120000Y-52340000D02*
X123720000Y-52340000D01*
X125760000Y-52340000D02*
X133100000Y-45000000D01*
X123720000Y-52340000D02*
X125760000Y-52340000D01*
G04 #@! TO.N,Net-(U3-Pad9)*
X73880000Y-67770000D02*
X77650000Y-64000000D01*
X77650000Y-64000000D02*
X91100000Y-64000000D01*
X91100000Y-64000000D02*
X92700000Y-64000000D01*
X92700000Y-64000000D02*
X112600000Y-44100000D01*
X112600000Y-44100000D02*
X112600000Y-44100000D01*
X112600000Y-44100000D02*
X112600000Y-44100000D01*
G04 #@! TO.N,Net-(J8-Pad1)*
X99380000Y-38900000D02*
X99380000Y-47020000D01*
X99380000Y-47020000D02*
X94400000Y-52000000D01*
X94400000Y-52000000D02*
X52500000Y-52000000D01*
X52500000Y-52000000D02*
X47400000Y-57100000D01*
X47400000Y-57100000D02*
X47400000Y-117700000D01*
X47400000Y-117700000D02*
X47400000Y-117700000D01*
G04 #@! TO.N,Net-(J4-Pad1)*
X109540000Y-40350000D02*
X109500000Y-40390000D01*
X109540000Y-38900000D02*
X109540000Y-40350000D01*
X109500000Y-40390000D02*
X109500000Y-44500000D01*
X109500000Y-44500000D02*
X97500000Y-56500000D01*
X97500000Y-56500000D02*
X55500000Y-56500000D01*
X55500000Y-56500000D02*
X51300000Y-60700000D01*
X51300000Y-60700000D02*
X51300000Y-67800000D01*
X51300000Y-67800000D02*
X51300000Y-69800000D01*
X51300000Y-69800000D02*
X51300000Y-81800000D01*
X51300000Y-81800000D02*
X55300000Y-85800000D01*
X55300000Y-85800000D02*
X55300000Y-91700000D01*
X55300000Y-91700000D02*
X50800000Y-96200000D01*
X50800000Y-96200000D02*
X50800000Y-96200000D01*
G04 #@! TO.N,Net-(U5-Pad6)*
X77720000Y-106290000D02*
X77720000Y-107740000D01*
G04 #@! TO.N,Net-(Noise1-Pad2)*
X96840000Y-39300000D02*
X91140000Y-45000000D01*
X96840000Y-38900000D02*
X96840000Y-39300000D01*
X91140000Y-45000000D02*
X58600000Y-45000000D01*
X58600000Y-45000000D02*
X58600000Y-45000000D01*
X54500000Y-129200000D02*
X66500000Y-129200000D01*
X50500000Y-45000000D02*
X45800000Y-49700000D01*
X53700000Y-45000000D02*
X50500000Y-45000000D01*
X45800000Y-49700000D02*
X45800000Y-118000000D01*
X45800000Y-118000000D02*
X50900000Y-123100000D01*
X66500000Y-129200000D02*
X68900000Y-131600000D01*
X50900000Y-123100000D02*
X50900000Y-125600000D01*
X50900000Y-125600000D02*
X54500000Y-129200000D01*
G04 #@! TO.N,Net-(Syn2-Pad2)*
X104460000Y-38900000D02*
X104460000Y-47440000D01*
X104460000Y-47440000D02*
X97200000Y-54700000D01*
X97200000Y-54700000D02*
X54700000Y-54700000D01*
X54700000Y-54700000D02*
X49500000Y-59900000D01*
X49500000Y-59900000D02*
X49500000Y-85800000D01*
X49500000Y-85800000D02*
X49500000Y-85800000D01*
G04 #@! TO.N,Net-(R3-Pad1)*
X78820000Y-31580000D02*
X81340000Y-34100000D01*
X78820000Y-31180000D02*
X78820000Y-31580000D01*
X81340000Y-34100000D02*
X81340000Y-34100000D01*
G04 #@! TO.N,Net-(U1-Pad2)*
X114600000Y-36500000D02*
X114600000Y-44830000D01*
X113200000Y-35100000D02*
X114600000Y-36500000D01*
X110420000Y-35100000D02*
X113200000Y-35100000D01*
X91660000Y-67770000D02*
X114600000Y-44830000D01*
G04 #@! TO.N,Net-(U1-Pad3)*
X107940000Y-27400000D02*
X113800000Y-27400000D01*
X113800000Y-27400000D02*
X116000000Y-29600000D01*
X116000000Y-46880000D02*
X116020000Y-46900000D01*
X116000000Y-29600000D02*
X116000000Y-46880000D01*
X95150000Y-67770000D02*
X116020000Y-46900000D01*
G04 #@! TO.N,GNDREF*
X121350000Y-33200000D02*
X123200000Y-33200000D01*
X119650000Y-33200000D02*
X121350000Y-33200000D01*
X118500000Y-34350000D02*
X119650000Y-33200000D01*
X118500000Y-36200000D02*
X118500000Y-34350000D01*
G04 #@! TO.N,Net-(J3-Pad1)*
X155100000Y-50500000D02*
X155100000Y-50800000D01*
X146400000Y-41800000D02*
X155100000Y-50500000D01*
X155100000Y-50800000D02*
X155100000Y-93000000D01*
G04 #@! TO.N,Net-(U5-Pad14)*
X100600000Y-104840000D02*
X100500000Y-104740000D01*
X100600000Y-106290000D02*
X100600000Y-104840000D01*
X100500000Y-104740000D02*
X100500000Y-98200000D01*
X100500000Y-98200000D02*
X101700000Y-97000000D01*
X101700000Y-97000000D02*
X101700000Y-97000000D01*
G04 #@! TO.N,Net-(U3-Pad9)*
X110665010Y-32805010D02*
X112405010Y-32805010D01*
X109540000Y-31280000D02*
X109540000Y-31680000D01*
X109540000Y-31680000D02*
X110665010Y-32805010D01*
X112405010Y-32805010D02*
X115300000Y-35700000D01*
X115300000Y-35700000D02*
X115300000Y-39100000D01*
X115300000Y-39100000D02*
X115300000Y-41000000D01*
X115300000Y-41000000D02*
X115300000Y-41000000D01*
G04 #@! TO.N,Net-(U5-Pad14)*
X113434315Y-78700000D02*
X114000000Y-78700000D01*
X105070000Y-78700000D02*
X113434315Y-78700000D01*
X104200000Y-77830000D02*
X105070000Y-78700000D01*
X104200000Y-76380000D02*
X104200000Y-77830000D01*
G04 #@! TO.N,Net-(U5-Pad3)*
X105680000Y-113910000D02*
X105680000Y-106290000D01*
X105680000Y-104840000D02*
X105700000Y-104820000D01*
X105680000Y-106290000D02*
X105680000Y-104840000D01*
X105700000Y-104820000D02*
X105700000Y-98400000D01*
X105700000Y-98400000D02*
X96000000Y-88700000D01*
X96000000Y-88700000D02*
X96000000Y-88700000D01*
G04 #@! TO.N,Net-(U5-Pad15)*
X101660000Y-72440000D02*
X101660000Y-76380000D01*
X103300000Y-70800000D02*
X101660000Y-72440000D01*
X114400000Y-70800000D02*
X103300000Y-70800000D01*
X98060000Y-117610000D02*
X98450000Y-118000000D01*
X98060000Y-113910000D02*
X98060000Y-117610000D01*
X98450000Y-118000000D02*
X111800000Y-118000000D01*
X111800000Y-118000000D02*
X118300000Y-111500000D01*
X118300000Y-111500000D02*
X118300000Y-74700000D01*
X118300000Y-74700000D02*
X114400000Y-70800000D01*
G04 #@! TO.N,Net-(U5-Pad16)*
X98060000Y-102510000D02*
X98060000Y-106290000D01*
X96200000Y-102000000D02*
X97550000Y-102000000D01*
X97550000Y-102000000D02*
X98060000Y-102510000D01*
X99120000Y-78870000D02*
X99120000Y-76380000D01*
X99850000Y-79600000D02*
X99120000Y-78870000D01*
X112500000Y-79600000D02*
X99850000Y-79600000D01*
X112750000Y-80650000D02*
X112750000Y-79850000D01*
X112750000Y-79850000D02*
X112500000Y-79600000D01*
G04 #@! TO.N,Net-(U5-Pad17)*
X95520000Y-113910000D02*
X95520000Y-115360000D01*
X65020000Y-114310000D02*
X65020000Y-113910000D01*
X65020000Y-114310000D02*
X66460000Y-115750000D01*
X95130000Y-115750000D02*
X95520000Y-115360000D01*
X66460000Y-115750000D02*
X95130000Y-115750000D01*
G04 #@! TO.N,Net-(U5-Pad6)*
X77720000Y-112460000D02*
X77720000Y-106290000D01*
X77720000Y-113910000D02*
X77720000Y-112460000D01*
X78770000Y-106290000D02*
X77720000Y-106290000D01*
X91500000Y-93560000D02*
X78770000Y-106290000D01*
X91500000Y-84000000D02*
X91500000Y-93560000D01*
G04 #@! TO.N,Net-(U5-Pad7)*
X92980000Y-113910000D02*
X92980000Y-106290000D01*
X92980000Y-86510000D02*
X92980000Y-106290000D01*
X94040000Y-84000000D02*
X94040000Y-85450000D01*
X94040000Y-85450000D02*
X92980000Y-86510000D01*
G04 #@! TO.N,Net-(U5-Pad20)*
X95520000Y-104840000D02*
X95520000Y-106290000D01*
X94750000Y-104070000D02*
X95520000Y-104840000D01*
X94750000Y-100684315D02*
X94750000Y-104070000D01*
X94665685Y-100600000D02*
X94750000Y-100684315D01*
X94100000Y-100600000D02*
X94665685Y-100600000D01*
G04 #@! TO.N,Net-(U5-Pad21)*
X62050000Y-96600000D02*
X62050000Y-97165685D01*
X62050000Y-97165685D02*
X62050000Y-102000000D01*
X62050000Y-102000000D02*
X60050000Y-104000000D01*
X60050000Y-104000000D02*
X60050000Y-114800000D01*
X60050000Y-114800000D02*
X60050000Y-114800000D01*
G04 #@! TO.N,Net-(U5-Pad10)*
X108220000Y-112460000D02*
X108220000Y-106290000D01*
X108220000Y-113910000D02*
X108220000Y-112460000D01*
X108220000Y-104840000D02*
X108220000Y-106290000D01*
X108220000Y-90960000D02*
X108220000Y-104840000D01*
X101660000Y-84400000D02*
X108220000Y-90960000D01*
X101660000Y-84000000D02*
X101660000Y-84400000D01*
G04 #@! TO.N,Net-(U5-Pad22)*
X75029999Y-103500001D02*
X75029999Y-100370001D01*
X74630000Y-103900000D02*
X75029999Y-103500001D01*
X75029999Y-100370001D02*
X75050000Y-100350000D01*
X75050000Y-100350000D02*
X75050000Y-92350000D01*
X75050000Y-92350000D02*
X75050000Y-92350000D01*
G04 #@! TO.N,Net-(U5-Pad23)*
X64550000Y-90800000D02*
X56050000Y-99300000D01*
X56050000Y-99300000D02*
X56050000Y-113000000D01*
X56050000Y-113000000D02*
X60950000Y-117900000D01*
X60950000Y-117900000D02*
X70550000Y-117900000D01*
X70550000Y-117900000D02*
X71850000Y-117900000D01*
X71850000Y-117900000D02*
X72650000Y-117100000D01*
X72650000Y-117100000D02*
X72650000Y-116950000D01*
X72650000Y-117100000D02*
X72650000Y-117100000D01*
X103140000Y-115960000D02*
X103140000Y-113910000D01*
X98800000Y-116750000D02*
X102350000Y-116750000D01*
X102350000Y-116750000D02*
X103140000Y-115960000D01*
G04 #@! TO.N,Net-(StimPot1-Pad2)*
X139200000Y-88600000D02*
X139200000Y-96700000D01*
G04 #@! TO.N,Net-(R3-Pad1)*
X123800000Y-73100000D02*
X121600000Y-75300000D01*
X123800000Y-70300000D02*
X123800000Y-73100000D01*
X121600000Y-68100000D02*
X123800000Y-70300000D01*
X121600000Y-68100000D02*
X121600000Y-48700000D01*
X121600000Y-44465685D02*
X121600000Y-46200000D01*
X121600000Y-43900000D02*
X121600000Y-44465685D01*
X121600000Y-48700000D02*
X121600000Y-46200000D01*
X121600000Y-46200000D02*
X121600000Y-46000000D01*
G04 #@! TO.N,Net-(U4-Pad1)*
X94300000Y-39300000D02*
X89800000Y-43800000D01*
X94300000Y-38900000D02*
X94300000Y-39300000D01*
X89800000Y-43800000D02*
X57500000Y-43800000D01*
X57500000Y-43800000D02*
X57500000Y-43800000D01*
X50100000Y-43800000D02*
X44400000Y-49500000D01*
X53700000Y-43800000D02*
X53134315Y-43800000D01*
X53134315Y-43800000D02*
X50100000Y-43800000D01*
X44400000Y-49500000D02*
X44400000Y-118700000D01*
X44400000Y-118700000D02*
X49600000Y-123900000D01*
X49600000Y-123900000D02*
X49600000Y-126300000D01*
X49600000Y-126300000D02*
X51400000Y-128100000D01*
X51400000Y-128100000D02*
X51400000Y-128100000D01*
G04 #@! TO.N,Net-(Syn1-Pad5)*
X101920000Y-38900000D02*
X101920000Y-47280000D01*
X101920000Y-47280000D02*
X96200000Y-53000000D01*
X96200000Y-53000000D02*
X53800000Y-53000000D01*
X53800000Y-53000000D02*
X49300000Y-57500000D01*
X49300000Y-57500000D02*
X49300000Y-57500000D01*
G04 #@! TO.N,Net-(U5-Pad2)*
X62480000Y-113910000D02*
X62480000Y-106290000D01*
X62480000Y-103260000D02*
X62480000Y-106290000D01*
X81340000Y-84000000D02*
X81340000Y-84400000D01*
X81340000Y-84400000D02*
X62480000Y-103260000D01*
G04 #@! TO.N,Net-(U5-Pad11)*
X75180000Y-112460000D02*
X75180000Y-106290000D01*
X75180000Y-113910000D02*
X75180000Y-112460000D01*
X75180000Y-104840000D02*
X89200000Y-90820000D01*
X75180000Y-106290000D02*
X75180000Y-104840000D01*
X89200000Y-90820000D02*
X89200000Y-90820000D01*
G04 #@! TO.N,Net-(D1-Pad2)*
X136300000Y-75300000D02*
X133780000Y-75300000D01*
X142200000Y-81200000D02*
X136300000Y-75300000D01*
X142200000Y-97000000D02*
X142200000Y-81200000D01*
X131740000Y-124227208D02*
X131700000Y-124187208D01*
X131740000Y-125500000D02*
X131740000Y-124227208D01*
X131700000Y-124187208D02*
X131700000Y-114500000D01*
X131700000Y-114500000D02*
X133100000Y-113100000D01*
X133100000Y-113100000D02*
X133100000Y-106100000D01*
X133100000Y-106100000D02*
X142200000Y-97000000D01*
G04 #@! TO.N,Net-(C3-Pad1)*
X133800000Y-70168630D02*
X133800000Y-71300000D01*
X133800000Y-53000000D02*
X133800000Y-65800000D01*
X133800000Y-65350000D02*
X133800000Y-65800000D01*
X152400000Y-32600000D02*
X138900000Y-32600000D01*
X138900000Y-32600000D02*
X136100000Y-35400000D01*
X133800000Y-65800000D02*
X133800000Y-70168630D01*
X136100000Y-35400000D02*
X136100000Y-50700000D01*
X136100000Y-50700000D02*
X133800000Y-53000000D01*
X131300000Y-55500000D02*
X133800000Y-53000000D01*
X131300000Y-63900000D02*
X131300000Y-55500000D01*
G04 #@! TO.N,Net-(BZ1-Pad1)*
X152400000Y-72067766D02*
X152400000Y-70300000D01*
X152400000Y-92050000D02*
X152400000Y-72067766D01*
X135600000Y-108850000D02*
X152400000Y-92050000D01*
X135600000Y-110100000D02*
X135600000Y-108850000D01*
X152400000Y-70300000D02*
X138700000Y-70300000D01*
X138700000Y-70300000D02*
X136600000Y-70300000D01*
G04 #@! TO.N,Net-(R6-Pad2)*
X119100000Y-68780000D02*
X121620000Y-71300000D01*
X119100000Y-63800000D02*
X119100000Y-68780000D01*
X116100000Y-62500000D02*
X117800000Y-62500000D01*
X117800000Y-62500000D02*
X119100000Y-63800000D01*
G04 #@! TD*
M02*
